<svg id="组_776" data-name="组 776" xmlns="http://www.w3.org/2000/svg" width="218.592" height="145.728" viewBox="0 0 218.592 145.728">
  <g id="组_771" data-name="组 771" transform="translate(10.104 0)" opacity="0.2">
    <path id="路径_595" data-name="路径 595" d="M180.381,719.786a9.453,9.453,0,0,0-.087,1.59q5.29.085,10.619.354c.024-.137.049-.279.069-.423a8.429,8.429,0,0,0-.5-4.4A4.653,4.653,0,0,0,182.1,715.7,8.443,8.443,0,0,0,180.381,719.786Z" transform="translate(-166.366 -587.563)" fill="#f1ea38"/>
    <ellipse id="椭圆_1" data-name="椭圆 1" cx="7.011" cy="5.356" rx="7.011" ry="5.356" transform="translate(14.18 130.363) rotate(-81.951)" fill="#f1ea38"/>
    <ellipse id="椭圆_2" data-name="椭圆 2" cx="7.011" cy="5.356" rx="7.011" ry="5.356" transform="translate(15.458 122.2) rotate(-81.82)" fill="#f1ea38"/>
    <ellipse id="椭圆_3" data-name="椭圆 3" cx="7.011" cy="5.356" rx="7.011" ry="5.356" transform="translate(16.676 113.72) rotate(-81.82)" fill="#f1ea38"/>
    <ellipse id="椭圆_4" data-name="椭圆 4" cx="7.011" cy="5.356" rx="7.011" ry="5.356" transform="translate(17.895 105.325) rotate(-81.82)" fill="#f1ea38"/>
    <path id="路径_596" data-name="路径 596" d="M163.832,132.877a25.712,25.712,0,0,0,2.391-2.621l-13.6-4.268,15.047,2.27a25.548,25.548,0,0,0,3.376-19.983l-21.718,7.562,20.608-10.985a25.638,25.638,0,1,0-46.022,22.307,25.74,25.74,0,0,0-3.562,4.2l16.73,11.951L118.737,134.1a25.509,25.509,0,0,0,.668,24.352,25.6,25.6,0,1,0,39.915,5.715,25.507,25.507,0,0,0,4.513-31.293Z" transform="translate(-111.454 -88.778)" fill="#f1ea38"/>
    <path id="路径_597" data-name="路径 597" d="M116.227,351.886a25.551,25.551,0,0,0,3.178,16.479,25.653,25.653,0,1,0,39.915,5.734C163.347,370.268,116.637,349.035,116.227,351.886Z" transform="translate(-111.454 -298.73)" fill="#f1ea38" opacity="0.1"/>
  </g>
  <path id="路径_598" data-name="路径 598" d="M61.5,567.4c0,19.9,12.484,36,27.914,36" transform="translate(-61.5 -470.966)" fill="#3a3768"/>
  <path id="路径_599" data-name="路径 599" d="M199.5,601.81c0-20.124,13.933-36.41,31.15-36.41" transform="translate(-171.586 -469.371)" fill="#f1e928"/>
  <path id="路径_600" data-name="路径 600" d="M111.5,576.32c0,18.9,7.962,34.2,17.8,34.2" transform="translate(-101.386 -478.082)" fill="#f1e928"/>
  <path id="路径_601" data-name="路径 601" d="M199.5,561.923c0-25.715,16.1-46.523,36-46.523" transform="translate(-171.586 -429.484)" fill="#3a3768"/>
  <ellipse id="椭圆_5" data-name="椭圆 5" cx="6.94" cy="1.173" rx="6.94" ry="1.173" transform="translate(19.762 136.972)" fill="#6c63ff" opacity="0.1"/>
  <path id="路径_602" data-name="路径 602" d="M170.47,738.218s3.959-.121,5.152-.971,6.088-1.863,6.384-.5,5.951,6.776,1.481,6.813-10.385-.7-11.576-1.416S170.47,738.218,170.47,738.218Z" transform="translate(-148.428 -605.526)" fill="#a8a8a8"/>
  <path id="路径_603" data-name="路径 603" d="M183.567,751.565c-4.47.034-10.385-.7-11.576-1.416-.906-.552-1.268-2.535-1.39-3.439h-.131s.251,3.194,1.44,3.918,7.108,1.458,11.576,1.416c1.291,0,1.736-.469,1.711-1.149C185.018,751.3,184.534,751.557,183.567,751.565Z" transform="translate(-148.428 -614.006)" opacity="0.2"/>
  <ellipse id="椭圆_6" data-name="椭圆 6" cx="103.734" cy="3.437" rx="103.734" ry="3.437" transform="translate(10.049 138.855)" fill="#f1e928" opacity="0.1"/>
  <rect id="矩形_1473" data-name="矩形 1473" width="2.005" height="16.532" rx="1.002" transform="translate(141.138 38.213)" fill="#3a3768"/>
  <rect id="矩形_1474" data-name="矩形 1474" width="1.125" height="5.443" rx="0.562" transform="translate(74.244 25.305)" fill="#3a3768"/>
  <rect id="矩形_1475" data-name="矩形 1475" width="1.268" height="9.475" rx="0.634" transform="translate(74.203 35.24)" fill="#3a3768"/>
  <rect id="矩形_1476" data-name="矩形 1476" width="1.208" height="9.555" rx="0.604" transform="translate(74.223 47.994)" fill="#3a3768"/>
  <rect id="矩形_1477" data-name="矩形 1477" width="67.109" height="136.008" rx="33.554" transform="translate(74.995 7.388)" fill="#3a3768"/>
  <rect id="矩形_1478" data-name="矩形 1478" width="9.371" height="1.903" rx="0.952" transform="translate(102.07 11.459)" fill="#e6e8ec"/>
  <circle id="椭圆_7" data-name="椭圆 7" cx="1.08" cy="1.08" r="1.08" transform="translate(112.882 11.332)" fill="#e6e8ec"/>
  <path id="路径_604" data-name="路径 604" d="M504.42,142.86h-7.686v.922a4.383,4.383,0,0,1-4.389,4.376H467.856a4.381,4.381,0,0,1-4.389-4.376v-.922H456.26a5.322,5.322,0,0,0-5.33,5.314V266.448a5.322,5.322,0,0,0,5.33,5.314h48.16a5.32,5.32,0,0,0,5.328-5.314V148.174A5.32,5.32,0,0,0,504.42,142.86Z" transform="translate(-371.79 -131.921)" fill="#e6e8ec"/>
  <rect id="矩形_1479" data-name="矩形 1479" width="31.555" height="10.923" rx="3.88" transform="translate(92.895 26.156)" fill="#f1e928"/>
  <g id="组_772" data-name="组 772" transform="translate(88.496 99.883)" opacity="0.3">
    <rect id="矩形_1480" data-name="矩形 1480" width="40.455" height="3.641" rx="1.82" fill="#f1e928"/>
    <rect id="矩形_1481" data-name="矩形 1481" width="40.455" height="3.641" rx="1.82" transform="translate(0 5.664)" fill="#f1e928"/>
    <rect id="矩形_1482" data-name="矩形 1482" width="40.455" height="3.641" rx="1.82" transform="translate(0 11.327)" fill="#f1e928"/>
    <rect id="矩形_1483" data-name="矩形 1483" width="40.455" height="3.641" rx="1.82" transform="translate(0 16.991)" fill="#f1e928"/>
    <rect id="矩形_1484" data-name="矩形 1484" width="15.373" height="3.641" rx="1.82" transform="translate(0 22.655)" fill="#f1e928"/>
  </g>
  <rect id="矩形_1485" data-name="矩形 1485" width="55.019" height="41.669" rx="5.71" transform="translate(81.214 47.699)" fill="#f1e928" opacity="0.3"/>
  <path id="路径_605" data-name="路径 605" d="M879.427,517.695c.061.809.287,1.768,1.052,2.047a1.957,1.957,0,0,0,1.125-.018,4.765,4.765,0,0,0,2.5-1.43,3.015,3.015,0,0,0,.686-2.723,9.353,9.353,0,0,0-1.485-2.34,17.243,17.243,0,0,1-1.2-2.911C878.841,510.633,879.245,515.264,879.427,517.695Z" transform="translate(-713.307 -425.289)" fill="#fbbebe"/>
  <path id="路径_606" data-name="路径 606" d="M862.5,354c-.435,1.416,1.106,2.957,1.6,4.349a15.031,15.031,0,0,1,1.683,7.231,33.92,33.92,0,0,0,1.011,5.646q.961,4.029,2.057,8.024a29.887,29.887,0,0,1,.856,3.687,14.172,14.172,0,0,1-.016,4.064,5.19,5.19,0,0,0-3.859.354,11.469,11.469,0,0,1-1.466-4.772,24.958,24.958,0,0,1,.028-2.988c.129-2.814-1.09-5.631-1.131-8.447a15.918,15.918,0,0,0-.231-2.913c-.133-.661-.121-1.9-.265-2.559-.229-1.048.754-1.531.7-2.605l-.3-5.866C863.109,356.179,862.077,354.918,862.5,354Z" transform="translate(-699.825 -300.533)" fill="#3f3d56"/>
  <path id="路径_607" data-name="路径 607" d="M862.5,354c-.435,1.416,1.106,2.957,1.6,4.349a15.031,15.031,0,0,1,1.683,7.231,33.92,33.92,0,0,0,1.011,5.646q.961,4.029,2.057,8.024a29.887,29.887,0,0,1,.856,3.687,14.172,14.172,0,0,1-.016,4.064,5.19,5.19,0,0,0-3.859.354,11.469,11.469,0,0,1-1.466-4.772,24.958,24.958,0,0,1,.028-2.988c.129-2.814-1.09-5.631-1.131-8.447a15.918,15.918,0,0,0-.231-2.913c-.133-.661-.121-1.9-.265-2.559-.229-1.048.754-1.531.7-2.605l-.3-5.866C863.109,356.179,862.077,354.918,862.5,354Z" transform="translate(-699.825 -300.533)" opacity="0.1"/>
  <path id="路径_608" data-name="路径 608" d="M789.827,311.768a2.245,2.245,0,0,0,.463.935,51.972,51.972,0,0,0,6.966,7.889,3.7,3.7,0,0,0,.653-.92,13.925,13.925,0,0,0,1.7-7c-1.171-.376-2.5-.9-2.872-2.071-.3-.922.1-2.023-.421-2.844-.74-1.157-3.892-1.307-4.905-.465-.661.55-.425,1.064-.635,1.808C790.545,309.911,789.7,310.9,789.827,311.768Z" transform="translate(-641.969 -262.792)" fill="#fbbebe"/>
  <path id="路径_609" data-name="路径 609" d="M789.827,311.768a2.245,2.245,0,0,0,.463.935,51.972,51.972,0,0,0,6.966,7.889,3.7,3.7,0,0,0,.653-.92,13.925,13.925,0,0,0,1.7-7c-1.171-.376-2.5-.9-2.872-2.071-.3-.922.1-2.023-.421-2.844-.74-1.157-3.892-1.307-4.905-.465-.661.55-.425,1.064-.635,1.808C790.545,309.911,789.7,310.9,789.827,311.768Z" transform="translate(-641.969 -262.792)" opacity="0.1"/>
  <path id="路径_610" data-name="路径 610" d="M792.78,776.162a2.7,2.7,0,0,0,1.108.465,37.135,37.135,0,0,0,11.773.969c.526-.04,1.23-.324,1.1-.835s-.809-.449-1.274-.593a2.865,2.865,0,0,1-1.094-.809,23.973,23.973,0,0,0-4.131-3.05,2.84,2.84,0,0,0-2.69-.484c-1.274.241-3.706.2-4.713,1.145A2.364,2.364,0,0,0,792.78,776.162Z" transform="translate(-643.855 -633.938)" fill="#3f3d56"/>
  <path id="路径_611" data-name="路径 611" d="M867.291,762.839a1.1,1.1,0,0,0,.275.868,1.012,1.012,0,0,0,.653.176,4.555,4.555,0,0,0,4-2.427l5.664-.661a7.923,7.923,0,0,0,6.141-3.054,1.187,1.187,0,0,0,.348-.5.8.8,0,0,0-.52-.874,2.085,2.085,0,0,0-1.094-.059c-2.765.38-5.54,1.618-8.245.928a6.478,6.478,0,0,0-2-.4,4.152,4.152,0,0,0-1.07.287c-.88.324-3.51.781-4.092,1.527S867.291,761.949,867.291,762.839Z" transform="translate(-703.523 -621.623)" fill="#3f3d56"/>
  <path id="路径_612" data-name="路径 612" d="M773.712,465.833c-.809,1.262-2.512,1.535-3.7,2.439-1.82,1.39-2.142,3.979-2.245,6.271a17.739,17.739,0,0,0,.237,4.745c.245,1.08.678,2.106,1.011,3.166a28.427,28.427,0,0,1,1.011,7.126c.279,6.068.032,12.173.809,18.2.222,1.723.53,3.439.7,5.168.558,5.728-.386,11.635,1.147,17.181a8.928,8.928,0,0,1,6.422-2.876,3.7,3.7,0,0,0,1.5-.174,1.022,1.022,0,0,0,.639-1.214,3.865,3.865,0,0,0-.4-.573c-.668-1.011.469-2.443-.018-3.558-.186-.427-.595-.744-.712-1.2a3.942,3.942,0,0,1,.188-1.493,7.08,7.08,0,0,0-.746-2.923,11.449,11.449,0,0,1-.115-4.569,129.84,129.84,0,0,0,.688-15.1c-.044-3.412-.214-6.9.769-10.166a25.873,25.873,0,0,1,4.677,5.919,12.928,12.928,0,0,1,1.723,4.3,16.1,16.1,0,0,1,.115,3.406l-.583,17.456c-.119,3.517-.221,7.14,1,10.443,3.1-1.653,6.271-3.236,9.371-4.9-.052-1.145-1.588-1.562-2.156-2.557a3.177,3.177,0,0,1-.322-1.333c-.394-4.729.572-9.454,1.464-14.115a28.7,28.7,0,0,0,.669-5.372,28.1,28.1,0,0,0-1.707-8.394c-.918-2.9-1.879-5.779-2.832-8.661-.617-1.851-1.234-3.7-2-5.5-.73-1.693-1.6-3.331-2.225-5.067a38.686,38.686,0,0,1-1.673-8.7C782.191,464.059,777.915,465,773.712,465.833Z" transform="translate(-624.301 -387.859)" fill="#3a3768"/>
  <ellipse id="椭圆_8" data-name="椭圆 8" cx="5.91" cy="5.91" rx="5.91" ry="5.91" transform="translate(145.58 35.224)" fill="#fbbebe"/>
  <path id="路径_613" data-name="路径 613" d="M791.42,331l-.429-3.2a2.587,2.587,0,0,0-.283-1.023,2.629,2.629,0,0,0-.74-.708l-4.118-3.008c-.2-.154-.481-.316-.714-.2a.679.679,0,0,0-.287.419c-.649,1.924-.249,4.017-.02,6.034.19,1.681.255,3.374.32,5.057a37.745,37.745,0,0,1,0,4.588c-.224,2.646-1.011,5.31-.483,7.911a44.061,44.061,0,0,1,1.1,5.073,15.025,15.025,0,0,0,.451,3.6,10.146,10.146,0,0,1,4.559-.459l3.734.2a6.8,6.8,0,0,0,1.557-.036,5.229,5.229,0,0,0,1.63-.639,11.184,11.184,0,0,0,3.41-2.973c-.631-3.048-.02-6.2-.439-9.28-.243-1.778-.843-3.489-1.127-5.259-.35-2.185-.2-4.45-.839-6.572a18.923,18.923,0,0,0-1.341-3.109,5.752,5.752,0,0,0-2.573-2.619,1.4,1.4,0,0,0-.674-.172c-.6.032-.965.663-1.129,1.238-.2.69-.261,1.416-.417,2.106A9.261,9.261,0,0,1,791.42,331Z" transform="translate(-637.704 -275.632)" fill="#f1e928"/>
  <path id="路径_614" data-name="路径 614" d="M737.333,370.989a2.452,2.452,0,0,0,3.139-.059c1.992-1.489,2.176-4.343,2.286-6.827a6.018,6.018,0,0,1,.518-2.6c.641-1.214,1.964-1.841,3.065-2.646a12.347,12.347,0,0,0,4.6-8.251,23.3,23.3,0,0,0-.949-9.582c-1.525-5.374-4.094-10.385-6.7-15.324a1.117,1.117,0,0,0-.364-.463c-.53-.33-1.1.32-1.466.827-1.228,1.721-3.251,2.642-5.1,3.659s-3.748,2.373-4.308,4.41a9.069,9.069,0,0,0,.2,4.2,11.392,11.392,0,0,0,2.037,3.653,35.643,35.643,0,0,1,2.363,4.023,7.594,7.594,0,0,1,.607,1.632,9.755,9.755,0,0,1,.16,2.023,95.319,95.319,0,0,1-.421,12.559,34.026,34.026,0,0,0-.536,7.08A2.913,2.913,0,0,0,737.333,370.989Z" transform="translate(-595.763 -277.517)" fill="#3f3d56"/>
  <path id="路径_615" data-name="路径 615" d="M774.455,495.273a10.708,10.708,0,0,0,2.605.916,3.4,3.4,0,0,0,2.63-.534,2.085,2.085,0,0,0,.69-2.46,12.46,12.46,0,0,0,1.942-.091c.368-.049.809-.19.874-.556.067-.431-.453-.688-.872-.809l-2.255-.623a8.129,8.129,0,0,0-2.039-.376,8.222,8.222,0,0,0-1.28.127l-3.423.532a.628.628,0,0,0-.259.081.607.607,0,0,0-.2.34c-.166.526-.933,1.99-.669,2.51C772.412,494.769,773.983,495.04,774.455,495.273Z" transform="translate(-627.88 -409.653)" fill="#fbbebe"/>
  <path id="路径_616" data-name="路径 616" d="M844.465,372.87a3.5,3.5,0,0,1-2.2,1.924,1.2,1.2,0,0,1-.653.042c-.4-.111-.627-.534-.795-.918-4.007-9.121-3.783-19.5-6.329-29.128-.757-2.858-1.768-5.73-1.586-8.682a1.763,1.763,0,0,1,.585-1.416,1.434,1.434,0,0,1,1.357,0c.431.192.8.506,1.214.72.67.342,1.448.439,2.092.825a5.308,5.308,0,0,1,1.869,2.694,19.668,19.668,0,0,1,1.893,6.829c.154,4.62-1.9,9.06-.827,13.552a26.9,26.9,0,0,0,.825,2.617,79.565,79.565,0,0,1,2.63,9.469A2.167,2.167,0,0,1,844.465,372.87Z" transform="translate(-676.29 -284.992)" fill="#3f3d56"/>
  <path id="路径_617" data-name="路径 617" d="M776.631,256.729a7.8,7.8,0,0,0,1.036-1.723c.135-.457.107-.957.269-1.406a2.637,2.637,0,0,1,2.971-1.325,34.707,34.707,0,0,1,3.346,1.119c.629.172,1.5.119,1.683-.508a1.419,1.419,0,0,0-.433-1.173l-3.35-4.29a1.842,1.842,0,0,1-1.335,0c-.233-.125-.4-.352-.663-.423-.7-.2-1.282.872-1.982.684-.2-.053-.362-.2-.564-.218-.564-.046-.777.888-1.341.935-.235.02-.459-.129-.694-.107a.888.888,0,0,0-.524.326,6.283,6.283,0,0,0-1.517,4.537c.061,1.636-.221,3.218.4,4.729.277.657.833,1.434,1.513,1.214,0-.89.829-1.778.839-2.666" transform="translate(-628.976 -215.066)" fill="#3a3768"/>
  <g id="组_773" data-name="组 773" transform="translate(147.644 95.803)" opacity="0.1">
    <path id="路径_618" data-name="路径 618" d="M800.241,569.685a25.688,25.688,0,0,0-4.365-5.4c-.983,3.269-.809,6.754-.769,10.166a129.853,129.853,0,0,1-.688,15.1,11.452,11.452,0,0,0,.115,4.569,7.1,7.1,0,0,1,.746,2.923,3.961,3.961,0,0,0-.188,1.493c.117.453.526.771.712,1.2.488,1.115-.649,2.541.018,3.558a3.857,3.857,0,0,1,.4.572,1.01,1.01,0,0,1-.639,1.214,3.807,3.807,0,0,1-1.5.174,8.944,8.944,0,0,0-5.287,1.843,23.873,23.873,0,0,0,.69,3.661,8.929,8.929,0,0,1,6.43-2.876,3.7,3.7,0,0,0,1.5-.174,1.021,1.021,0,0,0,.639-1.214,3.853,3.853,0,0,0-.4-.572c-.668-1.011.469-2.443-.018-3.558-.186-.427-.595-.744-.712-1.2a3.943,3.943,0,0,1,.188-1.493,7.079,7.079,0,0,0-.746-2.923,11.449,11.449,0,0,1-.115-4.569,129.868,129.868,0,0,0,.688-15.1c-.044-3.412-.214-6.9.769-10.166a25,25,0,0,1,2.532,2.777Z" transform="translate(-788.8 -564.28)"/>
  </g>
  <g id="组_774" data-name="组 774" transform="translate(144.546 36.346)" opacity="0.1">
    <path id="路径_619" data-name="路径 619" d="M773.567,275.167v-.837a6.33,6.33,0,0,0,0,.649C773.565,275.042,773.567,275.1,773.567,275.167Z" transform="translate(-773.552 -273.243)"/>
    <path id="路径_620" data-name="路径 620" d="M784.259,270.121A33.451,33.451,0,0,0,780.913,269a2.635,2.635,0,0,0-2.971,1.325c-.162.449-.133.949-.269,1.406a7.8,7.8,0,0,1-1.036,1.723l-.334-.3c0,.888-.829,1.776-.839,2.666-.68.22-1.236-.556-1.513-1.214a6.114,6.114,0,0,1-.419-2.278,7.415,7.415,0,0,0,.419,3.087c.277.659.833,1.436,1.513,1.214,0-.89.829-1.778.839-2.666l.334.3a7.8,7.8,0,0,0,1.036-1.723c.135-.457.107-.957.269-1.406a2.636,2.636,0,0,1,2.971-1.325,34.7,34.7,0,0,1,3.346,1.119c.629.172,1.5.119,1.683-.508a.893.893,0,0,0-.081-.631C785.58,270.248,784.823,270.275,784.259,270.121Z" transform="translate(-773.528 -268.957)"/>
  </g>
  <path id="路径_621" data-name="路径 621" d="M722.55,366.934a29.866,29.866,0,0,1-.744,3.667l-1.416,5.771a5.417,5.417,0,0,0-.237,1.875,5.161,5.161,0,0,0,1.062,2.3,45.838,45.838,0,0,0,10.019,10.405c-.224-1.151.575-2.225,1.327-3.131a10.044,10.044,0,0,1,2.462-2.361q-3.677-3.469-7.124-7.171a3.745,3.745,0,0,1-.619-.8c-.554-1.07,0-2.348.483-3.455a17.417,17.417,0,0,0,1.264-11.216,6.409,6.409,0,0,0-2.183-3.641,1.782,1.782,0,0,0-1.772-.344,1.967,1.967,0,0,0-.607.544C722.651,361.584,722.868,364.244,722.55,366.934Z" transform="translate(-586.424 -304.293)" fill="#3f3d56"/>
  <g id="组_775" data-name="组 775" transform="translate(161.581 11.028)" opacity="0.2">
    <path id="路径_622" data-name="路径 622" d="M1022.629,693.954a8.747,8.747,0,0,0,.354,1.345q4.315-1.39,8.712-2.63c-.018-.121-.034-.247-.057-.372a7.425,7.425,0,0,0-1.576-3.512,4.233,4.233,0,0,0-3.971-1.7,4.345,4.345,0,0,0-3.157,3A7.571,7.571,0,0,0,1022.629,693.954Z" transform="translate(-988.958 -577.429)" fill="#3f3d56"/>
    <ellipse id="椭圆_9" data-name="椭圆 9" cx="4.58" cy="6.127" rx="4.58" ry="6.127" transform="translate(31.431 102.967) rotate(-8.99)" fill="#3f3d56"/>
    <ellipse id="椭圆_10" data-name="椭圆 10" cx="4.58" cy="6.127" rx="4.58" ry="6.127" transform="translate(30.156 95.591) rotate(-8.99)" fill="#3f3d56"/>
    <ellipse id="椭圆_11" data-name="椭圆 11" cx="4.58" cy="6.127" rx="4.58" ry="6.127" transform="translate(28.881 88.212) rotate(-8.99)" fill="#3f3d56"/>
    <ellipse id="椭圆_12" data-name="椭圆 12" cx="4.58" cy="6.127" rx="4.58" ry="6.127" transform="translate(27.607 80.926) rotate(-8.99)" fill="#3f3d56"/>
    <path id="路径_623" data-name="路径 623" d="M897.877,176.147a22.605,22.605,0,0,0,1.242-2.821l-12.179.189,12.816-2.251a22.7,22.7,0,0,0,.38-9.563,22.472,22.472,0,0,0-2.99-7.945l-15.6,12.233,13.779-14.776a21.607,21.607,0,0,0-20.579-7.556,22.545,22.545,0,0,0-10.787,38.717,22.793,22.793,0,0,0-1.764,4.463l16.773,5.316-17.353-2.6a22.784,22.784,0,0,0,.085,7.266,22.3,22.3,0,0,0,6.974,12.757,22.68,22.68,0,0,0-2.259,14.45A21.875,21.875,0,0,0,891.8,242.071a22.545,22.545,0,0,0,10.787-38.717,22.682,22.682,0,0,0,2.27-14.45A22.28,22.28,0,0,0,897.877,176.147Z" transform="translate(-856.649 -143.3)" fill="#eee628"/>
    <path id="路径_624" data-name="路径 624" d="M881.618,406.2A22.408,22.408,0,0,0,888.592,419a22.845,22.845,0,0,0-2.259,14.505,21.884,21.884,0,0,0,25.388,18.116c11.916-2.193,19.867-13.862,17.762-26.059a22.407,22.407,0,0,0-6.974-12.806C924.751,408.47,881.191,403.721,881.618,406.2Z" transform="translate(-876.565 -352.757)" opacity="0.1"/>
  </g>
  <path id="路径_625" data-name="路径 625" d="M970.5,637.9c0,10.581,6.637,19.143,14.841,19.143" transform="translate(-785.89 -527.206)" fill="#3a3768"/>
  <path id="路径_626" data-name="路径 626" d="M1043.87,656.2c0-10.7,7.407-19.358,16.56-19.358" transform="translate(-844.419 -526.36)" fill="#ebe327"/>
  <path id="路径_627" data-name="路径 627" d="M997.08,642.65c0,10.049,4.234,18.182,9.464,18.182" transform="translate(-807.093 -530.995)" fill="#ebe327"/>
  <path id="路径_628" data-name="路径 628" d="M1043.87,634.994c0-13.672,8.56-24.734,19.141-24.734" transform="translate(-844.419 -505.157)" fill="#3a3768"/>
  <ellipse id="椭圆_13" data-name="椭圆 13" cx="3.778" cy="0.639" rx="3.778" ry="0.639" transform="translate(193.957 131.274)" fill="#6c63ff" opacity="0.1"/>
  <path id="路径_629" data-name="路径 629" d="M1022.85,723.538a7.886,7.886,0,0,0,2.8-.53c.649-.463,3.315-1.011,3.477-.273s3.236,3.69.809,3.71-5.664-.38-6.3-.775S1022.85,723.538,1022.85,723.538Z" transform="translate(-827.651 -594.593)" fill="#a8a8a8"/>
  <path id="路径_630" data-name="路径 630" d="M1029.978,730.762c-2.427.02-5.651-.378-6.3-.775-.494-.3-.69-1.379-.756-1.877h-.071s.136,1.738.785,2.132,3.868.793,6.3.775c.7,0,.945-.257.93-.627C1030.769,730.618,1030.5,730.758,1029.978,730.762Z" transform="translate(-827.651 -599.169)" opacity="0.2"/>
</svg>
