<svg id="undraw_wallet_aym5" xmlns="http://www.w3.org/2000/svg" xmlns:xlink="http://www.w3.org/1999/xlink" width="228.743" height="147.891" viewBox="0 0 228.743 147.891">
  <defs>
    <linearGradient id="linear-gradient" x1="0.5" y1="1" x2="0.5" gradientUnits="objectBoundingBox">
      <stop offset="0" stop-color="gray" stop-opacity="0.251"/>
      <stop offset="0.54" stop-color="gray" stop-opacity="0.122"/>
      <stop offset="1" stop-color="gray" stop-opacity="0.102"/>
    </linearGradient>
  </defs>
  <rect id="矩形_1486" data-name="矩形 1486" width="228.743" height="1.672" transform="translate(0 146.219)" fill="#85848b"/>
  <path id="路径_631" data-name="路径 631" d="M800.317,650.362c0,1.286-7.495,5.034-16.4,5.034s-15.84-3.749-15.84-5.034,7.216-.872,16.127-.872S800.317,649.074,800.317,650.362Z" transform="translate(-619.093 -533.658)" fill="#504f60"/>
  <path id="路径_632" data-name="路径 632" d="M800.317,653.72c0,1.286-7.495,5.034-16.4,5.034s-15.84-3.749-15.84-5.034" transform="translate(-619.093 -537.016)" opacity="0.2"/>
  <path id="路径_633" data-name="路径 633" d="M502.381,533.2a9.952,9.952,0,0,0,4.328-.146c.218-.068.458-.218.436-.436a.527.527,0,0,0-.1-.218,13.46,13.46,0,0,1-1.308-2.491.219.219,0,0,0-.081-.113.206.206,0,0,0-.14,0c-.639.168-1.19.58-1.824.756a2.592,2.592,0,0,1-.994.074c-.288-.033-.68-.27-.942-.24C501.908,531.339,502.27,532.228,502.381,533.2Z" transform="translate(-410.814 -440.091)" fill="#6c63ff"/>
  <path id="路径_634" data-name="路径 634" d="M624.306,516.653a7.561,7.561,0,0,0,2.5-2.349.407.407,0,0,0,.068-.2.419.419,0,0,0-.081-.2,8.1,8.1,0,0,0-2.033-2.195,5.932,5.932,0,0,0-1.133,1.046c-.24.253-.9.654-.909,1.04,0,.218.253.471.37.654.159.235.309.475.453.719A8.534,8.534,0,0,1,624.306,516.653Z" transform="translate(-505.413 -425.956)" fill="#6c63ff"/>
  <path id="路径_635" data-name="路径 635" d="M477.61,541.7a.971.971,0,0,1-.174.632.857.857,0,0,1-.366.218c-2.02.724-4.359-.179-6.375.534-.414.146-.806.358-1.223.5a6.666,6.666,0,0,1-1.526.27c-.713.068-1.43.111-2.144.131a5.156,5.156,0,0,1-1.617-.142,1.942,1.942,0,0,1-1.24-.983.944.944,0,0,1-.061-.7.754.754,0,0,1,.133-.218,1.91,1.91,0,0,1,.475-.386l.743-.479a4.987,4.987,0,0,1,1.127-.6c.294-.1.606-.137.9-.218a6.14,6.14,0,0,0,2.583-1.929l1.011-1.079a1.018,1.018,0,0,1,.351-.281.973.973,0,0,1,.436-.041,5.825,5.825,0,0,1,2.757.924,3.566,3.566,0,0,0,.68.4,2.427,2.427,0,0,0,1.9-.235c.259-.139.2-.218.312-.466s.375-.408.606-.181a.64.64,0,0,1,.144.275,7.73,7.73,0,0,1,.135,2.247.989.989,0,0,0,.044.349,1.971,1.971,0,0,0,.2.323.743.743,0,0,1,.041.083,2.217,2.217,0,0,1,.146,1.053Z" transform="translate(-380.38 -445.672)" fill="#514e7f"/>
  <path id="路径_636" data-name="路径 636" d="M477.61,555.049a.97.97,0,0,1-.174.632.86.86,0,0,1-.366.218c-2.02.723-4.359-.179-6.375.534-.414.146-.806.357-1.223.5a6.663,6.663,0,0,1-1.526.27c-.713.068-1.43.111-2.144.131a5.158,5.158,0,0,1-1.617-.142,1.942,1.942,0,0,1-1.24-.983.944.944,0,0,1-.061-.7.752.752,0,0,1,.133-.218c.118.246.2.573.277.691a1.414,1.414,0,0,0,.946.682,2.349,2.349,0,0,0,.872-.111c1.831-.453,3.777-.46,5.536-1.146a12.8,12.8,0,0,1,1.813-.7,14.248,14.248,0,0,1,1.961-.159c1.033-.083,2.033-.394,3.051-.558a2.216,2.216,0,0,1,.137,1.059Z" transform="translate(-380.38 -459.021)" fill="#464353"/>
  <path id="路径_637" data-name="路径 637" d="M610.165,521.258a3.674,3.674,0,0,1-1.116,1.988,12.989,12.989,0,0,0-1.563,1.709,13.75,13.75,0,0,1-1.438,2.467,3.946,3.946,0,0,1-.872.621,6.068,6.068,0,0,1-1.122.516,8.371,8.371,0,0,1-3.171.172,2.854,2.854,0,0,1-1.007-.194,3.045,3.045,0,0,1-.418-.257,2,2,0,0,1-.654-.654.653.653,0,0,1-.063-.475,1.114,1.114,0,0,1,.3-.462,7.177,7.177,0,0,1,.767-.691,4.59,4.59,0,0,0,1-.872,2.814,2.814,0,0,0,.386-.872,7.737,7.737,0,0,0,.281-1.667,5.29,5.29,0,0,1,.115-1.116c.161-.575.589-1.09.541-1.685a.421.421,0,0,1,.022-.255.356.356,0,0,1,.2-.124,3.557,3.557,0,0,1,1.042-.242,1.214,1.214,0,0,1,.968.379c.148.179.246.436.464.506a.737.737,0,0,0,.331.013,2.775,2.775,0,0,0,1.526-.469,1.9,1.9,0,0,0,.632-1.388c0-.2-.089-.405.218-.436.231-.03.414.218.532.37a5.162,5.162,0,0,1,1.02,1.857.55.55,0,0,1,.194-.037.843.843,0,0,1,.7.355A1.384,1.384,0,0,1,610.165,521.258Z" transform="translate(-486.645 -430.694)" fill="#514e7f"/>
  <path id="路径_638" data-name="路径 638" d="M610.461,529.009A3.674,3.674,0,0,1,609.345,531a12.993,12.993,0,0,0-1.563,1.709,13.766,13.766,0,0,1-1.438,2.467,3.953,3.953,0,0,1-.872.621,6.084,6.084,0,0,1-1.122.516,8.373,8.373,0,0,1-3.171.172,2.854,2.854,0,0,1-1.007-.194,3.047,3.047,0,0,1-.419-.257,2,2,0,0,1-.654-.654,1.594,1.594,0,0,1,.654-.157c.471.026.815.471,1.266.608.643.194,1.284-.259,1.935-.414a13.079,13.079,0,0,0,1.292-.218,3.2,3.2,0,0,0,.957-.58,4.871,4.871,0,0,0,1.022-.985,6.332,6.332,0,0,0,.6-1.2,17.093,17.093,0,0,1,1.212-2.319,1.634,1.634,0,0,1,.246-.323,3.449,3.449,0,0,1,.333-.242,2.533,2.533,0,0,0,.769-1.4,2.461,2.461,0,0,1,.172-.469.844.844,0,0,1,.7.355A1.384,1.384,0,0,1,610.461,529.009Z" transform="translate(-486.94 -438.445)" fill="#464353"/>
  <path id="路径_639" data-name="路径 639" d="M438.49,202.675A4.623,4.623,0,0,1,439.8,204.2c.305.6,2.064,5.23,1.961,5.9.573-.578,2.833-.671,3.413-1.249.242-.242,1.547-1.449,1.743-1.73s1.652-.872,1.811-1.168c.6-1.066-4.219-5.1-3.6-6.157a.275.275,0,0,0,.05-.166.271.271,0,0,0-.081-.129,7.22,7.22,0,0,0-1.393-.952,2.209,2.209,0,0,1-1.061-1.264,4.577,4.577,0,0,0-1.231.833q-1.325,1.135-2.6,2.317c-.334.309-.979.721-1.133,1.164C437.487,202.078,438.171,202.416,438.49,202.675Z" transform="translate(-360.668 -180.06)" fill="#a1616a"/>
  <path id="路径_640" data-name="路径 640" d="M455.535,214.13a14.181,14.181,0,0,0-2.062,1.687,4.1,4.1,0,0,0-1.308,2.1c-.061.325-.052.654-.1.983-.218,1.427-1.451,2.474-2,3.81a6.6,6.6,0,0,0-.347,1.275,15.066,15.066,0,0,0-.251,2.5c-.013.813.785,1.373,1.077,2.131a13.013,13.013,0,0,1,.519,2.317,27.451,27.451,0,0,0,1.308,4.293c1.074,2.968,4.557,11.174,5.632,14.144,3.293-.826,12.058-2.724,14.975-4.466.972-.58-6.745-7.12-5.706-7.571a.388.388,0,0,0,.292-.547c-1.04-4.546-4.291-8.282-5.767-12.708a38.568,38.568,0,0,0-2.129-4.309c-.632-1.323-.97-2.785-1.726-4.043a2.552,2.552,0,0,0-.551-.687,3.255,3.255,0,0,0-.608-.368C456.352,214.466,455.951,214.341,455.535,214.13Z" transform="translate(-369.92 -193.23)" fill="#d2cb25"/>
  <ellipse id="椭圆_14" data-name="椭圆 14" cx="5.154" cy="5.154" rx="5.154" ry="5.154" transform="translate(72.841 11.79)" fill="#a1616a"/>
  <path id="路径_641" data-name="路径 641" d="M466.4,205.447a1.728,1.728,0,0,1,1.937-.279.936.936,0,0,1,.575.931l2.556.039a5.132,5.132,0,0,1,1.212.111,1.761,1.761,0,0,1,1.011.634c.031.041.065.092.118.1a.187.187,0,0,0,.118-.039,2.219,2.219,0,0,1,1.273-.218,6.876,6.876,0,0,1,3.742,1.643,1.21,1.21,0,0,1,.436.543c.089.29-.017.654.218.861,0,2.4.824,4.638,1.373,6.974a3.129,3.129,0,0,0,.774,1.111,4.485,4.485,0,0,1,.826,1.234c.466,1.212-.177,2.637.277,3.853a6.6,6.6,0,0,0,.872,1.384,3.578,3.578,0,0,1,.745,1.787c.02.292-.017.586,0,.872a5.278,5.278,0,0,0,.218,1.157q.279,1.055.584,2.107a4.784,4.784,0,0,0,1.778,2.96c-2.452.416-5.037.824-7.373-.028a3.823,3.823,0,0,1-.92-.46,5.3,5.3,0,0,1-1.615-2.6,12.285,12.285,0,0,1-.9-3.358,3.855,3.855,0,0,0-.155-1.09,3.1,3.1,0,0,0-1.447-1.364,6.948,6.948,0,0,1-1.743-1.356,2.709,2.709,0,0,1-.706-2.036c.044-.36.185-.706.2-1.068a.837.837,0,0,0-.495-.872c-1.785-.54-2.637-2.654-3.034-4.476a14.374,14.374,0,0,1-.229-2.855l-.024-1.859a2.454,2.454,0,0,1-.8-1.763,2.1,2.1,0,0,0-.011-.584,1.611,1.611,0,0,0-.41-.621A5.544,5.544,0,0,1,466.4,205.447Z" transform="translate(-383.161 -186.081)" fill="#464353"/>
  <path id="路径_642" data-name="路径 642" d="M439.922,228.632a14.3,14.3,0,0,1-.057,1.73c-.05.218-.137.436-.2.639a3.748,3.748,0,0,0,.238,2.426,13.509,13.509,0,0,0,1.24,2.147,3.488,3.488,0,0,1,.4.743,3.841,3.841,0,0,1,.153.848,26.339,26.339,0,0,0,.606,3.426c.244.976,3.016,9.323,3.661,10.1a.821.821,0,0,0,.5.338.9.9,0,0,0,.423-.087l1.308-.5a.854.854,0,0,0,.3-.166.78.78,0,0,0,.187-.514c.094-1.064-2.685-9.469-3.038-10.474-1.068-3.034-2.489-5.958-3.184-9.1-.194-.872-.3-2.214-.935-2.909-.264-.288-.174-.166-.49-.015a3.574,3.574,0,0,0-.462.242,1.512,1.512,0,0,0-.645,1.131Z" transform="translate(-362.173 -203.373)" fill="#464353"/>
  <path id="路径_643" data-name="路径 643" d="M556.62,320.79" transform="translate(-453.718 -276.645)" fill="#464353"/>
  <path id="路径_644" data-name="路径 644" d="M458.311,228.53c.351,1.855.713,3.7,1.072,5.56l5.117-1.34a3.6,3.6,0,0,0-.436-1.526c-.466-1.17-.477-2.474-.854-3.677-.285-.915-.782-1.757-1.05-2.678-.155-.536-.233-1.09-.386-1.632a11.847,11.847,0,0,0-.6-1.558,9.753,9.753,0,0,0-1.116-2.068,3.254,3.254,0,0,0-1.724,1.118,2.415,2.415,0,0,0-.318,1.09c-.089,1.149.327,2.3.19,3.446A10.135,10.135,0,0,0,458.311,228.53Z" transform="translate(-376.593 -197.516)" fill="#f1e928"/>
  <path id="路径_645" data-name="路径 645" d="M478.006,334.041a6.112,6.112,0,0,1-.469,3.315,25.686,25.686,0,0,0-1.042,4.991,4.316,4.316,0,0,1-.257,1.262c-.161.364-.436.671-.623,1.018a5.112,5.112,0,0,0-.39,3.064c.074.687.185,1.371.323,2.046a5.177,5.177,0,0,1,.133,2.5c.405-.089.68.436.654.848a2.262,2.262,0,0,0,.039,1.227c.5.183.506.872.49,1.406a11.821,11.821,0,0,0,.349,2.746q1.138,5.47,2.415,10.91c1.842.571,3.993,1.166,5.749.375a1.153,1.153,0,0,0,.728-.732,1.278,1.278,0,0,0-.07-.562l-.832-3.029a5.562,5.562,0,0,1-.3-2.24c.081-.56.325-1.164.05-1.659-.094-.17-.242-.3-.351-.464-.436-.639-.207-1.493-.172-2.267a1.8,1.8,0,0,0-.035-.519,2.587,2.587,0,0,0-.248-.569,8.7,8.7,0,0,1-.959-4.328,1.069,1.069,0,0,0-.076-.564,1.834,1.834,0,0,1-.142-.231.632.632,0,0,1,.046-.416,3.813,3.813,0,0,1-.671-.654.939.939,0,0,0,.161-1.469.49.49,0,0,0,.233-.843c-.107-.074-.248-.107-.325-.218-.118-.161-.022-.386.074-.558L483,347.5c.379-.682.464-1.526.872-2.179a16.338,16.338,0,0,0,1.342-3.064l1.467-4.047.987.857a3.12,3.12,0,0,1,.811.924,3.989,3.989,0,0,1,.264,1.107c.362,2.2,1.743,4.1,2.256,6.266a4.125,4.125,0,0,0,.466,1.4,3.057,3.057,0,0,1,.266.4,2.127,2.127,0,0,1,.111.665,3.1,3.1,0,0,0,1.308,2.223c.486.333,1.09.562,1.353,1.09a2.033,2.033,0,0,0,.218.464c.235.283.743.316.843.671.057.2-.048.436.063.61a.578.578,0,0,0,.242.181l1.419.708c1.587.793,2.4,2.615,3.568,3.943a8.506,8.506,0,0,1,1.068,1.412c.506.9.739,2.04,1.593,2.615a2.411,2.411,0,0,1,.619.46c.268.353.17.848.194,1.292s.364.974.787.839a3.1,3.1,0,0,0,0,1.645,8.282,8.282,0,0,0,5.026-2.036,1.983,1.983,0,0,0,.817-1.373.492.492,0,0,0-.061-.272.777.777,0,0,0-.32-.242c-1.327-.719-1.726-2.386-2.4-3.74A32.419,32.419,0,0,0,506,356.99c-1.578-2.386-2.654-5.274-5.041-6.85a3.43,3.43,0,0,1-1.4-1.227c-.146-.32-.163-.687-.279-1.018a.883.883,0,0,0-.745-.654,4.568,4.568,0,0,0,.17-1.582,2,2,0,0,0-.078-.682,3.326,3.326,0,0,0-.351-.676,6.481,6.481,0,0,1-.9-3.487,5.72,5.72,0,0,0-.061-1.881c-.1-.3-.264-.58-.379-.872a5.448,5.448,0,0,1-.272-1.639l-.131-2.094a10.309,10.309,0,0,0-.27-2.07c-.436-1.626-.872-8.436-2.365-9.2s-4.058,4.474-5.738,4.577a7.472,7.472,0,0,0-2.179.421,10.617,10.617,0,0,0-2.968,1.961l-3.09,2.6A11.388,11.388,0,0,1,478.006,334.041Z" transform="translate(-390.014 -278.356)" fill="#464353"/>
  <path id="路径_646" data-name="路径 646" d="M415.446,164.461a3.885,3.885,0,0,1,3-1.462,6.985,6.985,0,0,1,3.315.833,4.093,4.093,0,0,0,.968.4c.545.111,1.151-.037,1.643.218a1.968,1.968,0,0,1,.724,1.961,3.6,3.6,0,0,0,.2,2.179,5.038,5.038,0,0,1,.377.569,1.88,1.88,0,0,1-.031,1.212,7.858,7.858,0,0,1-.625-.8.737.737,0,0,0-.9-.233c-.281.19-.277.534-.292.843s-.094.68-.386.78a.626.626,0,0,1-.654-.255c-.5-.61-.3-1.584-.793-2.2-.281-.349-.75-.519-1.009-.885-.2-.288-.257-.654-.436-.963s-.595-.536-.872-.323a1.181,1.181,0,0,0-.233.312,1.34,1.34,0,0,1-1.591.479,2.661,2.661,0,0,0-.689-.3.852.852,0,0,0-.787.436,1.7,1.7,0,0,0-.218.911,2.1,2.1,0,0,1-.17,1.249,1.293,1.293,0,0,1-.349.331,1.086,1.086,0,0,1-1.207.124.907.907,0,0,1-.27-.846,6.831,6.831,0,0,1,.257-.894c.192-.676-.059-1.436.15-2.073A6.617,6.617,0,0,1,415.446,164.461Z" transform="translate(-342.286 -153.239)" fill="#464353"/>
  <path id="路径_647" data-name="路径 647" d="M432.761,206.942a.793.793,0,0,0,.048.473.752.752,0,0,0,.257.246,5.287,5.287,0,0,0,2.428.787.739.739,0,0,1,.336.087.59.59,0,0,1,.142.676,1.758,1.758,0,0,0-.155.719c.063.455.6.654,1.059.721a2.464,2.464,0,0,0,1.844-.36,2.85,2.85,0,0,0,.761-1.14c1.251-2.875,1.689-6.052,2.955-8.918a1.892,1.892,0,0,0,.19-.6.588.588,0,0,0-.235-.549c-.235-.146-.6-.063-.761-.292-.078-.115-.07-.272-.14-.394-.146-.259-.53-.218-.791-.368-.2-.109-.346-.333-.575-.377a.723.723,0,0,0-.595.257,7.663,7.663,0,0,0-1.547,2.6,30.528,30.528,0,0,1-2.214,4.106,2.4,2.4,0,0,0-.693-1.358c-.39-.078-.889.606-1.1.861a5.484,5.484,0,0,0-1.212,2.816Z" transform="translate(-356.841 -180.345)" fill="#d2cb25"/>
  <path id="路径_648" data-name="路径 648" d="M460.43,200.32a1.044,1.044,0,0,0-.809.405,2.306,2.306,0,0,0-.338,1.09A9.469,9.469,0,0,1,458,205.263" transform="translate(-376.591 -182.429)" opacity="0.1"/>
  <path id="路径_649" data-name="路径 649" d="M465.71,204.31a1.244,1.244,0,0,0-1.057.634,3.564,3.564,0,0,0-.266,1.077,5.909,5.909,0,0,1-1.057,2.264" transform="translate(-380.76 -185.55)" opacity="0.1"/>
  <path id="路径_650" data-name="路径 650" d="M274.385,363.139v-2.707a7.514,7.514,0,0,0-7.514-7.512h-106.9a7.514,7.514,0,0,0-7.514,7.512v4.991Z" transform="translate(-137.64 -301.772)" fill="#33323d"/>
  <path id="路径_651" data-name="路径 651" d="M323.364,278.48s-.305,18.93,3.051,25.159,4.795,33.325,4.795,33.325,35.184,3.64,59.7-4.359,76.688-11.27,76.688-11.27l-8.792-59.255s-43.433-2.785-68.14,9S323.364,278.48,323.364,278.48Z" transform="translate(-271.292 -230.505)" fill="#8dd070"/>
  <path id="路径_652" data-name="路径 652" d="M323.364,278.48s-.305,18.93,3.051,25.159,4.795,33.325,4.795,33.325,35.184,3.64,59.7-4.359,76.688-11.27,76.688-11.27l-8.792-59.255s-43.433-2.785-68.14,9S323.364,278.48,323.364,278.48Z" transform="translate(-271.292 -230.505)" opacity="0.1"/>
  <path id="路径_653" data-name="路径 653" d="M358.343,300.409s-1.1,15.62,1.661,20.61,2.89,27.271,2.89,27.271,31.664,1.469,54.188-6.2,69.856-12.64,69.856-12.64l-5.379-48.458s-39.163-.4-62.021,10.389S358.343,300.409,358.343,300.409Z" transform="translate(-298.484 -245.519)" fill="#8dd070"/>
  <ellipse id="椭圆_15" data-name="椭圆 15" cx="8.221" cy="17.631" rx="8.221" ry="17.631" transform="translate(108.189 53.724) rotate(-7.1)" opacity="0.1"/>
  <path id="路径_654" data-name="路径 654" d="M391.078,130.66s-42.195,10.679-62.093,29.476-61.785,27.7-61.785,27.7,5.518,18.108,10.622,23.008,14.785,30.25,14.785,30.25,34.6-7.336,55.48-22.478,69.537-34.266,69.537-34.266Z" transform="translate(-227.374 -127.951)" opacity="0.2"/>
  <path id="路径_655" data-name="路径 655" d="M264.29,175.4s5.516,18.111,10.616,23.01,14.785,30.248,14.785,30.248,34.606-7.334,55.487-22.476,69.535-34.26,69.535-34.26L388.166,118.23s-42.193,10.679-62.09,29.476S264.29,175.4,264.29,175.4Z" transform="translate(-225.098 -118.23)" fill="#8dd070"/>
  <path id="路径_656" data-name="路径 656" d="M264.29,175.4s5.516,18.111,10.616,23.01,14.785,30.248,14.785,30.248,34.606-7.334,55.487-22.476,69.535-34.26,69.535-34.26L388.166,118.23s-42.193,10.679-62.09,29.476S264.29,175.4,264.29,175.4Z" transform="translate(-225.098 -118.23)" opacity="0.1"/>
  <path id="路径_657" data-name="路径 657" d="M308,197.793S311.746,213,315.907,216.9s11.115,25.063,11.115,25.063,30.585-8.321,49.67-22.53S439.3,185.985,439.3,185.985L419.316,141.5s-37.4,11.631-55.84,28.918S308,197.793,308,197.793Z" transform="translate(-259.282 -136.429)" fill="#8dd070"/>
  <ellipse id="椭圆_16" data-name="椭圆 16" cx="8.221" cy="17.631" rx="8.221" ry="17.631" transform="translate(94.366 45.424) rotate(-24.97)" opacity="0.1"/>
  <path id="路径_658" data-name="路径 658" d="M277.294,384.8v75.189a6.5,6.5,0,0,1-6.5,6.5h-111.8a6.5,6.5,0,0,1-6.5-6.5V377.22c3.2,1.19,3.2,1.19,6.5,1.09h111.8a6.5,6.5,0,0,1,6.5,6.49Z" transform="translate(-137.664 -320.776)" opacity="0.1"/>
  <path id="路径_659" data-name="路径 659" d="M277.294,389.182v75.189a6.5,6.5,0,0,1-6.5,6.5h-111.8a6.5,6.5,0,0,1-6.5-6.5V381.6c3.2,1.188,3.2,1.188,6.5,1.09h111.8A6.5,6.5,0,0,1,277.294,389.182Z" transform="translate(-137.664 -324.202)" fill="#504f60"/>
  <path id="路径_660" data-name="路径 660" d="M596.863,543.936v24.045H573.544a12.023,12.023,0,1,1,0-24.046Z" transform="translate(-457.551 -451.158)" opacity="0.1"/>
  <path id="路径_661" data-name="路径 661" d="M598.323,541v24.049H575A12.023,12.023,0,1,1,575,541Z" transform="translate(-458.692 -448.862)" fill="#33323d"/>
  <ellipse id="椭圆_17" data-name="椭圆 17" cx="4.688" cy="4.688" rx="4.688" ry="4.688" transform="translate(112.741 100.114)" opacity="0.1"/>
  <ellipse id="椭圆_18" data-name="椭圆 18" cx="4.688" cy="4.688" rx="4.688" ry="4.688" transform="translate(113.06 99.478)" fill="#f1e928"/>
  <path id="路径_662" data-name="路径 662" d="M856.1,527.976c.185,2.007-1.334,3.956-.891,5.921.1.421.277.817.342,1.242a4.777,4.777,0,0,1-1.177,3.249l-5.71,8.378a5.206,5.206,0,0,1-.815,1.007c-1.09.972-2.729.872-4.163,1.162a7.112,7.112,0,0,0-2.79,1.233.179.179,0,0,0-.026.244,2.4,2.4,0,0,0,2.075.974c.15.2,0,.488-.218.63-.307.218-.728.27-.789.789a.858.858,0,0,0,.1.523,1.624,1.624,0,0,0,1,.7c1.977.6,4.112-.458,5.592-1.9s2.541-3.269,3.993-4.74c.8-.813,1.717-1.51,2.545-2.3a29.141,29.141,0,0,0,4.176-5.4,6.027,6.027,0,0,0,.9-1.839c.157-.669.083-1.345.259-1.992a7.335,7.335,0,0,1,1.369-2.238,7.4,7.4,0,0,0,1.556-4.819,4.62,4.62,0,0,0-2.82-4,2.507,2.507,0,0,0-1.58-.1,3.754,3.754,0,0,0-1.608,1.279l-1.09,1.253a2.938,2.938,0,0,0-.632.959,1,1,0,0,0,.218,1.066" transform="translate(-675.99 -436.046)" fill="#fbbebe"/>
  <path id="路径_663" data-name="路径 663" d="M856.1,527.976c.185,2.007-1.334,3.956-.891,5.921.1.421.277.817.342,1.242a4.777,4.777,0,0,1-1.177,3.249l-5.71,8.378a5.206,5.206,0,0,1-.815,1.007c-1.09.972-2.729.872-4.163,1.162a7.112,7.112,0,0,0-2.79,1.233.179.179,0,0,0-.026.244,2.4,2.4,0,0,0,2.075.974c.15.2,0,.488-.218.63-.307.218-.728.27-.789.789a.858.858,0,0,0,.1.523,1.624,1.624,0,0,0,1,.7c1.977.6,4.112-.458,5.592-1.9s2.541-3.269,3.993-4.74c.8-.813,1.717-1.51,2.545-2.3a29.141,29.141,0,0,0,4.176-5.4,6.027,6.027,0,0,0,.9-1.839c.157-.669.083-1.345.259-1.992a7.335,7.335,0,0,1,1.369-2.238,7.4,7.4,0,0,0,1.556-4.819,4.62,4.62,0,0,0-2.82-4,2.507,2.507,0,0,0-1.58-.1,3.754,3.754,0,0,0-1.608,1.279l-1.09,1.253a2.938,2.938,0,0,0-.632.959,1,1,0,0,0,.218,1.066" transform="translate(-675.99 -436.046)" opacity="0.05"/>
  <path id="路径_664" data-name="路径 664" d="M912.82,768.82a6.609,6.609,0,0,1-4.25.63c-.233-.028-.51-.046-.654.135-.218.261.039.654.305.856a6.287,6.287,0,0,0,2.918,1.2,19.216,19.216,0,0,0,2.855.19,48.246,48.246,0,0,0,7.8-.286,1.1,1.1,0,0,0,.436-.126.8.8,0,0,0,.323-.49,1.945,1.945,0,0,0-.678-1.857,5.688,5.688,0,0,0-1.82-.976l-2.266-.883a5.825,5.825,0,0,0-1.961-.713C914.746,766.58,913.72,768.293,912.82,768.82Z" transform="translate(-728.39 -625.216)" fill="#3f3d56"/>
  <path id="路径_665" data-name="路径 665" d="M912.82,768.82a6.609,6.609,0,0,1-4.25.63c-.233-.028-.51-.046-.654.135-.218.261.039.654.305.856a6.287,6.287,0,0,0,2.918,1.2,19.216,19.216,0,0,0,2.855.19,48.246,48.246,0,0,0,7.8-.286,1.1,1.1,0,0,0,.436-.126.8.8,0,0,0,.323-.49,1.945,1.945,0,0,0-.678-1.857,5.688,5.688,0,0,0-1.82-.976l-2.266-.883a5.825,5.825,0,0,0-1.961-.713C914.746,766.58,913.72,768.293,912.82,768.82Z" transform="translate(-728.39 -625.216)" opacity="0.05"/>
  <path id="路径_666" data-name="路径 666" d="M931.822,592.935c-.944,1.255-1.92,2.7-1.687,4.259a9.5,9.5,0,0,0,.939,2.349,16.576,16.576,0,0,1,.95,3.3c.353,1.643.708,3.291.924,4.96.246,1.885-.911,7.34-1.018,9.238a1.952,1.952,0,0,1-.4,1.281c-.124.131-.29.235-.346.405a.693.693,0,0,0,.076.479,5.274,5.274,0,0,0,2.833,2.6,22.412,22.412,0,0,0,5.464,1.436,1.092,1.092,0,0,0,.514-.068,1,1,0,0,0,.4-.456c.948-1.813.037-8.26.05-10.306.013-1.706.416-3.4.342-5.106-.061-1.369-.436-2.707-.56-4.071a24.025,24.025,0,0,1,.6-6.693c.314-1.7.63-3.391,1.033-5.065a9.728,9.728,0,0,1,1.09-2.94c.436-.7,1.048-1.292,1.556-1.961a8.853,8.853,0,0,0,1.744-6.481c-.031-.218-3.269.822-3.555.946a11.073,11.073,0,0,0-3.169,2.038,26.66,26.66,0,0,0-2,2.469q-1.393,1.7-2.75,3.419Q933.308,590.943,931.822,592.935Z" transform="translate(-745.803 -479.42)" fill="#464353"/>
  <path id="路径_667" data-name="路径 667" d="M931.822,592.624c-.944,1.255-1.92,2.707-1.687,4.259a9.478,9.478,0,0,0,.939,2.352,16.552,16.552,0,0,1,.95,3.3c.353,1.645.708,3.293.924,4.96.246,1.887-.911,7.34-1.018,9.238a1.958,1.958,0,0,1-.4,1.284c-.124.128-.29.233-.346.4a.691.691,0,0,0,.076.479,5.338,5.338,0,0,0,2.833,2.615,21.05,21.05,0,0,0,5.464,1.022,1.09,1.09,0,0,0,.514-.068.985.985,0,0,0,.4-.453c.948-1.813.037-7.846.05-9.894.013-1.709.416-3.4.342-5.109-.061-1.369-.436-2.707-.56-4.069a24.034,24.034,0,0,1,.6-6.7c.314-1.693.63-3.389,1.033-5.065a9.728,9.728,0,0,1,1.09-2.94c.436-.7,1.048-1.292,1.556-1.961a8.849,8.849,0,0,0,1.744-6.481c-.031-.218-3.269.822-3.555.946a11.124,11.124,0,0,0-3.169,2.04,26.335,26.335,0,0,0-2,2.467q-1.393,1.7-2.75,3.422Q933.308,590.63,931.822,592.624Z" transform="translate(-745.803 -479.185)" opacity="0.05"/>
  <ellipse id="椭圆_19" data-name="椭圆 19" cx="5.289" cy="5.289" rx="5.289" ry="5.289" transform="translate(170.229 75.289)" fill="#fbbebe"/>
  <path id="路径_668" data-name="路径 668" d="M893.584,483.318a6.85,6.85,0,0,0,4.391,3.064l-.4,1.449c-.689,2.489-1.462,5.122-3.384,6.848a3.183,3.183,0,0,0-.536-2.476,9.331,9.331,0,0,0-1.8-1.876l-3.045-2.637a.917.917,0,0,1-.218-.257.773.773,0,0,1,0-.58c.388-1.207,1.495-1.961,2.4-2.776a8.3,8.3,0,0,0,1.205-1.4C892.808,481.805,893.185,482.677,893.584,483.318Z" transform="translate(-713.302 -402.962)" fill="#fbbebe"/>
  <path id="路径_669" data-name="路径 669" d="M853.118,448.33l-.12-.994c.835.218,1.628-.492,2.162-1.227s1.029-1.6,1.841-1.907c.987-.37,2.034.218,2.977.715a9.413,9.413,0,0,0,3.415,1.111,2.247,2.247,0,0,1,.564.092,1.964,1.964,0,0,1,1,1.689,6.609,6.609,0,0,0,.368,2.066c.218.473.623.824.872,1.29.654,1.251.022,2.962.7,4.189l-1.7-1.554c-.155-.142-.373-.29-.545-.17-.135.1-.146.3-.2.469a.89.89,0,0,1-1.207.436,3.46,3.46,0,0,1-1.09-.987,6.614,6.614,0,0,0-2.689-2.04,3.452,3.452,0,0,0-2.833.187c-.791.447-1.371,1.488-2.341,1.526-1.329.05-1.883-2.426-2.5-3.4a1.2,1.2,0,0,0,.349-1.5C852.238,448.28,853.1,448.177,853.118,448.33Z" transform="translate(-684.568 -373.069)" fill="#464353"/>
  <path id="路径_670" data-name="路径 670" d="M551.5,317.173a10.3,10.3,0,0,0-1.175,1.234,2.469,2.469,0,0,0-.54,1.584.81.81,0,0,0,.152.464.393.393,0,0,0,.436.133.589.589,0,0,0,.218-.192,10.465,10.465,0,0,1,.732-.793c.094-.094.218-.192.344-.157a.368.368,0,0,1,.148.1,1,1,0,0,1,.307.479,1.13,1.13,0,0,1-.338.928,2.378,2.378,0,0,0-.569.841.373.373,0,0,0,0,.27.4.4,0,0,0,.17.144,2.432,2.432,0,0,0,2.057.135c.436-.177.824-.479,1.273-.636a2.946,2.946,0,0,0,.562-.218,1.168,1.168,0,0,0,.5-.748,3.082,3.082,0,0,0,.033-.918,10.55,10.55,0,0,0-.75-3.45.436.436,0,0,0-.126-.183.4.4,0,0,0-.218-.059,5.183,5.183,0,0,0-2.011-.137,1.42,1.42,0,0,0-.475.423C552.134,316.527,551.5,317.027,551.5,317.173Z" transform="translate(-448.376 -272.835)" fill="#a1616a"/>
  <path id="路径_671" data-name="路径 671" d="M528.77,246.321c0-.532-.654-1.815.386-1.9,0-.569-.8-.922-.654-1.526.048-.2.218-.364.238-.569.065-.582-.985-.9-.811-1.456.065-.218.3-.344.347-.56.118-.5-.782-.728-.8-1.244,0-.174.1-.338.089-.512,0-.218-.189-.384-.294-.573-.272-.486-.14-1.238-.636-1.489.329.028.436-.46.3-.758s-.412-.558-.414-.889a1.35,1.35,0,0,0,0-.362c-.092-.318-.612-.344-.7-.654a2.8,2.8,0,0,1-.011-.357c-.035-.246-.288-.4-.525-.473a2.141,2.141,0,0,1-.7-.251c-.153-.115-.329-.307-.493-.218-.061.037-.092.107-.137.159-.2.229-.571.129-.817-.039a3.358,3.358,0,0,1-1.244-2.247c-.155-.865-.15-1.759-.344-2.615a5.581,5.581,0,0,0-.235-.785,4.124,4.124,0,0,1-.366-.78c-.039-.5,1-.159,1.393-.109a6.2,6.2,0,0,1,1.131.218,12.1,12.1,0,0,1,1.157.508c1.573.7,3.474.78,4.738,1.948a3.971,3.971,0,0,0,1.308,1.061,5.919,5.919,0,0,1,.732.19c.6.281.693,1.077,1.02,1.652a3.244,3.244,0,0,1,.268.479,1.847,1.847,0,0,1,.087.61l.046,1.51a55.713,55.713,0,0,1-.122,7.582,6.22,6.22,0,0,0,.028,2.482c.065.218.157.423.218.643a3.923,3.923,0,0,1,.083.785l.035.979a.305.305,0,0,1-.048.218.314.314,0,0,1-.264.063c-1.362-.122-2.74-.889-4.025-.425" transform="translate(-425.818 -202.477)" fill="#464353"/>
  <ellipse id="椭圆_20" data-name="椭圆 20" cx="16.119" cy="2.33" rx="16.119" ry="2.33" transform="translate(148.993 114.374)" fill="#504f60"/>
  <path id="路径_672" data-name="路径 672" d="M725.8,280.059c-.283-1.214-.46-2.28-.46-2.28a4.7,4.7,0,0,0-.527-2.312v-.331h0V272.7a8.311,8.311,0,0,1,.617-1.279c.436-.767,0-3.579,0-3.579s-1.628-3.964-1.234-6.479-3.343-11.167-3.343-11.167a11.031,11.031,0,0,1,.351-2.471,1.882,1.882,0,0,0,.048-.519v-.044a19.208,19.208,0,0,0-1.369-4.766l.177-5.924a17.417,17.417,0,0,0-.528-8.184c-.477-1.637-.782-2.947-.976-3.958-.022-.113-.044-.218-.061-.329,2.809-.436,4.956-.785,4.956-.785s-1.63-6.819-2.731-8.014-1.981-4.945-1.981-4.945-.573-4.814.353-6.222a9.355,9.355,0,0,0,1.057-3.836s2.112-1.526,2.378-2.216a11.306,11.306,0,0,0,.7-3.025c0-.809-.264-1.526-.176-1.961s-.617-2.046-.264-2.814a2.063,2.063,0,0,0,.14-.739.1.1,0,0,0,0-.022h0a10.355,10.355,0,0,0-.185-2,5.678,5.678,0,0,0-2.092-1.118l-.046-.183-.12-.48a2.311,2.311,0,0,0-.207-.122v-.174l-.019-.693.331-1.556c.654-2.707-2.962-3.11-2.962-3.11a1.907,1.907,0,0,0-1.024-.9c-.726-.255-.12,4.071.218,4.359a17.027,17.027,0,0,1,1.425,2.232h0l.061.109a1.517,1.517,0,0,0-.166.174l.137.939.022.144a3.9,3.9,0,0,0-.578.983,2.121,2.121,0,0,1,.53,1.526,4.888,4.888,0,0,0,.218,1.874c-.039-.046-.5-.547-.968-.425s-1.761.512-1.761.512-.968.17-.872.384-.654,1.151-.654,1.151l-2.6-2.467c-.026-.074-.054-.148-.076-.218a6.014,6.014,0,0,1-.218-1.09,5.943,5.943,0,0,0,.833-.264,1.8,1.8,0,0,0,.719-.462,2.787,2.787,0,0,0,.421-1.122,16.5,16.5,0,0,1,.966-2.153,7,7,0,0,0,.49-3.875,2.527,2.527,0,0,0-.4-1.133c-.425-.584-1.2-.822-1.757-1.288s-.922-1.179-1.576-1.526a3.125,3.125,0,0,0-1.975-.17,10.643,10.643,0,0,0-3.69,1.343,1.921,1.921,0,0,1-1.233.405,1.61,1.61,0,0,1-.889-.654.213.213,0,0,1,.011-.035.216.216,0,0,1-.028-.035,4.6,4.6,0,0,0-.405,1.948,2.391,2.391,0,0,0,.013.312v.2h0a.5.5,0,0,1-.02.137.989.989,0,0,1-.244.351,2.374,2.374,0,0,0-.218.29.358.358,0,0,1,.035-.107,1.55,1.55,0,0,0-.27.822.84.84,0,0,0,.2.588,2.841,2.841,0,0,0,.425.34,4.97,4.97,0,0,0-.078.872,5.036,5.036,0,0,0,2.454,4.3c.03.072.059.146.087.218a6.2,6.2,0,0,1,.473,2.833,1.333,1.333,0,0,1-.03.2c-.011.068-.065.072-.094.109h0s-4.3.044-5.311-.872-2.554,2.238-2.554,2.238-1.541.3-1.85,0-2.112-.041-2.112-.041a3.885,3.885,0,0,0-2.687-.981,7.885,7.885,0,0,0-1.962-1.09h0l-.048-.017h0a2.2,2.2,0,0,0-.97-.122,19.566,19.566,0,0,1-2.731-2.685c-.617-.941-3.552-4.418-3.565-4.433v-.168l-.033-.506a1.812,1.812,0,0,1-.264.022c-.015-.05-.037-.109-.059-.177a9.766,9.766,0,0,0-.623-1.432s0-.639.185-.8a11.015,11.015,0,0,0-.076-2.5s-1.9-4.452-3.611-1.129c0,0-3.225,2.151-.519,4.657,0,0,1.09.523,1.234.937.1.268.466,1.02.713,1.526l.111.218-.03.026.039.418.018.161c-.51.29-.857.578-.772.793a4.763,4.763,0,0,1,.307,1.151s3.744,4.69,4.228,6.693c0,0,10.04,5.967,13.342,6.392l-.584,2.975a23.744,23.744,0,0,0-.131,2.43c.044.639-.4,3.537-.4,3.537s-.573,4.263-1.057,4.86-.4,3.154-.4,3.154a21.542,21.542,0,0,1-.654,3.622,9.252,9.252,0,0,0-.133,3.624s-1.672,3.836,2.334,1.236c0,0,1.961-.122,4.232-.2v.218c0,.292,0,.608-.015.939-.031,2.2-.044,5.231.057,7.515.177,4.049,1.41,12.063,1.41,12.063V250a5.465,5.465,0,0,0-.118,1.151,7.488,7.488,0,0,0,1.09,4.03l.309,2.685a10.469,10.469,0,0,1,.737,2.833,1.486,1.486,0,0,1-.03.255,1.722,1.722,0,0,0-.035.412,23.2,23.2,0,0,0,.693,4.141s.044,2.94.484,3.112c.377.146-.5,1.693-.765,2.138a.615.615,0,0,1-.015-.083l-.055.087a2.089,2.089,0,0,0-.137.745,1.068,1.068,0,0,0,.488,1.033c.837.512,1.286.937.575,1.107a7.413,7.413,0,0,0-.776.163.334.334,0,0,0-.037-.1.466.466,0,0,0-.29.514,2.179,2.179,0,0,0,.259.99,10.792,10.792,0,0,0,1.192,2.179l.338-.037a1.65,1.65,0,0,1-.2.364,1.4,1.4,0,0,1-.5.436,1.538,1.538,0,0,1-.6.207,1.7,1.7,0,0,0-1.247.606,1.3,1.3,0,0,0,.153,2.022l3.149,1.09s5.418.7,5.13-.512-.462-2.28-.462-2.28a4.805,4.805,0,0,0-.436-2.155,2.779,2.779,0,0,0-.192-.318l.192-.02s.4-2.687.924-3.2c.122-.118.15-.218.122-.279.055-.146-.085-.231-.262-.281l-.039.107a2.57,2.57,0,0,0-.525-.059s-.176-1.406.4-1.918a.543.543,0,0,0,.111-.418,2.251,2.251,0,0,0-.061-.573.252.252,0,0,1-.02.035,20.628,20.628,0,0,0-1.264-3.306,4.042,4.042,0,0,1,.31-1.789c.353-.512-.046-6.948-.046-6.948a21.026,21.026,0,0,0-.264-4.559,5.119,5.119,0,0,1,.484-3.156v-.113l-.05-.49a.107.107,0,0,0,0,.031c-.09-.824-.257-2.317-.382-3.005-.177-.981.046-5.666.046-5.666l.791-2.005,1.41,3.454,1.5,4.6a3.932,3.932,0,0,1,.758,1.961v.144a2.534,2.534,0,0,0-.017.307,2.737,2.737,0,0,0,.455,1.641s.4,2.179,1.014,2.726a2.447,2.447,0,0,1,.617,1.619,28.3,28.3,0,0,0,1.09,3.7,5.51,5.51,0,0,1,.31,2.142h0v.113s.1,1.129.1,2.075v.338a.121.121,0,0,0,0-.024,3.285,3.285,0,0,1-.092.767l-.013.044a.551.551,0,0,1,.015-.159,8.007,8.007,0,0,0-.218,1.961,5.081,5.081,0,0,0,.839,3.269c1.19,1.364,1.938,1.194,1.938,1.194s-.571,1.7-1.277,2.046a.329.329,0,0,0-.074.048.736.736,0,0,0-.018-.1.831.831,0,0,0-.218.636,4.572,4.572,0,0,0,.872,2.526,1.424,1.424,0,0,0,.6.349.951.951,0,0,1-.111.068,2.387,2.387,0,0,1-.242.116,1.272,1.272,0,0,1-.36.094,1.678,1.678,0,0,0-1.247.606,1.3,1.3,0,0,0,.153,2.02l3.149,1.09S726.082,281.273,725.8,280.059Z" transform="translate(-546.82 -163.242)" fill="url(#linear-gradient)"/>
  <path id="路径_673" data-name="路径 673" d="M797.867,642.036l-3.051-1.09a1.324,1.324,0,0,1-.148-2.023,1.631,1.631,0,0,1,1.207-.606,1.446,1.446,0,0,0,.582-.207,1.392,1.392,0,0,0,.484-.436,2.25,2.25,0,0,0,.347-1.179s3.348-.981,4.263,0a2.475,2.475,0,0,1,.405.6,4.977,4.977,0,0,1,.436,2.155s.17,1.064.447,2.28S797.867,642.036,797.867,642.036Z" transform="translate(-639.573 -523.205)" fill="#2d293d"/>
  <path id="路径_674" data-name="路径 674" d="M866.308,635.12l-3.051-1.09a1.322,1.322,0,0,1-.148-2.02,1.611,1.611,0,0,1,1.205-.606,1.132,1.132,0,0,0,.349-.094,2.3,2.3,0,0,0,.235-.116,1.93,1.93,0,0,0,.83-1.619s3.345-.981,4.263,0a2.416,2.416,0,0,1,.32.436,4.845,4.845,0,0,1,.51,2.315s.17,1.066.436,2.28S866.308,635.12,866.308,635.12Z" transform="translate(-693.097 -517.793)" fill="#2d293d"/>
  <path id="路径_675" data-name="路径 675" d="M811.167,636.484a2.484,2.484,0,0,1,.405.595h0l-5.013.582a2.251,2.251,0,0,0,.346-1.179S810.252,635.5,811.167,636.484Z" transform="translate(-649.187 -523.195)" opacity="0.1"/>
  <path id="路径_676" data-name="路径 676" d="M877.349,630.032v.939c-.78,1.284-4.553,1-5.649.36a2.323,2.323,0,0,0,.235-.116,1.93,1.93,0,0,0,.83-1.619s3.345-.981,4.263,0A2.409,2.409,0,0,1,877.349,630.032Z" transform="translate(-700.13 -517.809)" opacity="0.1"/>
  <path id="路径_677" data-name="路径 677" d="M808.928,435.777a8.539,8.539,0,0,0-.6,1.279v3.367c-.854,1.406-5.285.937-5.884.17s-1.225-2.763-.551-3.11,1.236-2.046,1.236-2.046-.726.17-1.876-1.194-.809-4.389-.595-5.113a15.1,15.1,0,0,0,0-3.154,6.336,6.336,0,0,0-.3-2.26,28.133,28.133,0,0,1-1.066-3.7,2.508,2.508,0,0,0-.6-1.619c-.6-.554-.981-2.729-.981-2.729a2.8,2.8,0,0,1-.425-1.833,3.723,3.723,0,0,0-.726-2.216l-1.449-4.605-1.364-3.452-.767,2s-.218,4.688-.041,5.666.436,3.581.436,3.581a5.256,5.256,0,0,0-.469,3.154,21.525,21.525,0,0,1,.244,4.564s.384,6.434.041,6.946a4.161,4.161,0,0,0-.3,1.791s1.743,3.748,1.194,4.261-.383,1.918-.383,1.918,1.192,0,.682.512-.9,3.2-.9,3.2l-5.154.6a10.723,10.723,0,0,1-1.153-2.179c-.682-1.584.126-1.406.813-1.578s.253-.6-.558-1.107-.34-1.663-.34-1.663,1.236-2.088.809-2.258-.469-3.112-.469-3.112-.852-3.487-.639-4.433-.682-3.195-.682-3.195l-.3-2.685a7.389,7.389,0,0,1-.937-5.074v-4.141s-1.194-8.011-1.364-12.061c-.109-2.593-.078-6.133-.044-8.341.022-1.238.044-2.06.044-2.06l18.411-1.918a15.382,15.382,0,0,0,.333,2.735c.19,1.011.484,2.321.946,3.958a17.983,17.983,0,0,1,.512,8.181l-.172,5.926s1.619,3.962,1.279,5.326a11.368,11.368,0,0,0-.344,2.476s3.622,8.652,3.239,11.167,1.192,6.479,1.192,6.479S809.356,435.01,808.928,435.777Z" transform="translate(-631.115 -327.604)" fill="#464353"/>
  <path id="路径_678" data-name="路径 678" d="M852.05,510.018l5.605-.748S854.48,512.511,852.05,510.018Z" transform="translate(-684.763 -424.048)" opacity="0.05"/>
  <path id="路径_679" data-name="路径 679" d="M870.382,484.14s.192,1.983-1.022,2.729C869.36,486.869,871.533,486.529,870.382,484.14Z" transform="translate(-698.3 -404.394)" opacity="0.1"/>
  <path id="路径_680" data-name="路径 680" d="M848.694,455.2s-4.686,3.857-6.39,3.537S848.694,455.2,848.694,455.2Z" transform="translate(-676.957 -381.761)" opacity="0.1"/>
  <path id="路径_681" data-name="路径 681" d="M807.008,521s-3.559.809-3.666,2.238S807.008,521,807.008,521Z" transform="translate(-646.669 -433.221)" opacity="0.1"/>
  <path id="路径_682" data-name="路径 682" d="M809.925,602.56s-5.028.937-3.6,1.576a24.422,24.422,0,0,0,3.772,1.151S811.72,605.371,809.925,602.56Z" transform="translate(-648.803 -497.006)" opacity="0.05"/>
  <g id="组_777" data-name="组 777" transform="translate(152.336 60.131)" opacity="0.05">
    <path id="路径_683" data-name="路径 683" d="M800.259,611.838a.992.992,0,0,1-.46-.728l-.052.089s-.469,1.151.342,1.661c.092.059.181.118.262.174.15-.028.312-.05.466-.089C801.5,612.775,801.07,612.35,800.259,611.838Z" transform="translate(-796.089 -563.824)"/>
    <path id="路径_684" data-name="路径 684" d="M831.455,609.752c.139-.126.135-.453.05-.872a2.45,2.45,0,0,0-.286,1.233A1.064,1.064,0,0,1,831.455,609.752Z" transform="translate(-820.809 -562.08)"/>
    <path id="路径_685" data-name="路径 685" d="M827.53,515.59a5.813,5.813,0,0,0-.34,1.567,6.311,6.311,0,0,1,.39-1.077Z" transform="translate(-817.657 -489.121)"/>
    <path id="路径_686" data-name="路径 686" d="M881.254,503.656a2,2,0,0,0,.046-.466c-.063.318-.107.612-.139.872C881.188,503.929,881.219,503.8,881.254,503.656Z" transform="translate(-859.865 -479.424)"/>
    <path id="路径_687" data-name="路径 687" d="M827.77,581.718a2.732,2.732,0,0,0,.126-.948,3.221,3.221,0,0,0-.246,1.2,1.147,1.147,0,0,1,.12-.248Z" transform="translate(-818.017 -540.096)"/>
    <path id="路径_688" data-name="路径 688" d="M806.714,622a16.912,16.912,0,0,0-.586,2.615l-5.154.595a10.717,10.717,0,0,1-1.153-2.179,3.956,3.956,0,0,1-.146-.375c-.31.142-.436.462-.026,1.4a10.89,10.89,0,0,0,1.155,2.179l5.154-.6s.384-2.685.894-3.2C807.113,622.192,806.951,622.063,806.714,622Z" transform="translate(-795.915 -572.341)"/>
    <path id="路径_689" data-name="路径 689" d="M787.448,436.145s.041,2.94.469,3.11h0c.218-.486.36-.948.168-1.024-.436-.17-.469-3.112-.469-3.112s-.852-3.487-.638-4.433-.682-3.195-.682-3.195l-.3-2.685a7.388,7.388,0,0,1-.937-5.074v-4.141s-1.194-8.011-1.364-12.061c-.109-2.593-.078-6.133-.044-8.34,0-.4.013-.752.019-1.051l-.146.015s-.024.82-.044,2.06c-.035,2.208-.068,5.747.044,8.338.17,4.049,1.362,12.063,1.362,12.063v4.141a7.392,7.392,0,0,0,.939,5.071l.3,2.685s.9,2.258.682,3.2S787.448,436.145,787.448,436.145Z" transform="translate(-783.448 -394.14)"/>
    <path id="路径_690" data-name="路径 690" d="M867.765,624.195a4.984,4.984,0,0,1-.817-2.024c-.525.475.078,2.319.654,3.051.595.767,5.028,1.236,5.884-.172v-.811C872.324,625.378,868.327,624.92,867.765,624.195Z" transform="translate(-848.592 -572.474)"/>
    <path id="路径_691" data-name="路径 691" d="M899,609.258a8.6,8.6,0,0,0-.6,1.279v.6a8.958,8.958,0,0,1,.436-.854,2.614,2.614,0,0,0,.187-1.057S899,609.25,899,609.258Z" transform="translate(-873.348 -562.354)"/>
    <path id="路径_692" data-name="路径 692" d="M863.86,589.848a8.443,8.443,0,0,0,.421-1.013s-.726.17-1.876-1.194c-.837-.992-.885-2.866-.765-4.091-.218.726-.556,3.751.595,5.115A3.035,3.035,0,0,0,863.86,589.848Z" transform="translate(-844.426 -542.27)"/>
    <path id="路径_693" data-name="路径 693" d="M835.407,484.954a22.686,22.686,0,0,1,.085,2.526,3.441,3.441,0,0,1,.087-.394,14.8,14.8,0,0,0,0-3.154,6.3,6.3,0,0,0-.3-2.26,27.5,27.5,0,0,1-1.055-3.709,2.508,2.508,0,0,0-.6-1.619c-.6-.554-.981-2.729-.981-2.729a2.805,2.805,0,0,1-.436-1.833,3.712,3.712,0,0,0-.724-2.216l-1.449-4.6-1.364-3.452-.769,2.005s0,.253-.026.654l.623-1.628,1.364,3.446,1.449,4.6a3.71,3.71,0,0,1,.724,2.216,2.806,2.806,0,0,0,.436,1.833s.384,2.179.981,2.729a2.494,2.494,0,0,1,.595,1.619,28.029,28.029,0,0,0,1.066,3.7A6.3,6.3,0,0,1,835.407,484.954Z" transform="translate(-818.197 -446.827)"/>
  </g>
  <path id="路径_694" data-name="路径 694" d="M863.809,194.874l-.32,1.556.02.693.013.51-1.778.183-.2-.368h0a16.506,16.506,0,0,0-1.38-2.232c-.329-.275-.915-4.6-.218-4.346a1.859,1.859,0,0,1,.989.9S864.439,192.167,863.809,194.874Z" transform="translate(-690.684 -175.031)" fill="#ffcdd3"/>
  <path id="路径_695" data-name="路径 695" d="M870.427,219.363l-1.778.183-.2-.368h0a1.567,1.567,0,0,1,1.961-.323Z" transform="translate(-697.589 -196.761)" opacity="0.1"/>
  <path id="路径_696" data-name="路径 696" d="M870.508,220.786l-2.345.543-.05-.349-.133-.939a1.614,1.614,0,0,1,2.271-.309l.118.477Z" transform="translate(-697.221 -197.34)" fill="#f1e928"/>
  <path id="路径_697" data-name="路径 697" d="M685,183.217l-2.5,1.342-.218-.471c-.238-.5-.593-1.251-.691-1.526-.148-.414-1.192-.937-1.192-.937-2.615-2.5.5-4.657.5-4.657,1.652-3.324,3.487,1.129,3.487,1.129a11.284,11.284,0,0,1,.076,2.5c-.181.157-.181.8-.181.8a9.833,9.833,0,0,1,.6,1.432C684.963,183.071,685,183.217,685,183.217Z" transform="translate(-549.704 -163.203)" fill="#ffcdd3"/>
  <path id="路径_698" data-name="路径 698" d="M695.512,208.64l-2.5,1.343-.218-.471c.353-.3,1.606-1.308,2.018-1.266a3.019,3.019,0,0,0,.593.015C695.471,208.494,695.512,208.64,695.512,208.64Z" transform="translate(-560.212 -188.627)" opacity="0.1"/>
  <path id="路径_699" data-name="路径 699" d="M696.009,210.013,693.2,211.4l-.057-.6-.039-.418s1.63-1.4,2.112-1.342a2.563,2.563,0,0,0,.735,0l.033.506Z" transform="translate(-560.454 -189.243)" fill="#f1e928"/>
  <path id="路径_700" data-name="路径 700" d="M810.738,222.594s-12.265,1.384-9.973.639a3.066,3.066,0,0,0,2.362-2.659,6.385,6.385,0,0,0-.456-2.833,12.349,12.349,0,0,0-1.089-2.216s9.371-5.156,7.5-.469a7.567,7.567,0,0,0-.532,2.221,6.277,6.277,0,0,0,.242,2.249A6.7,6.7,0,0,0,810.738,222.594Z" transform="translate(-644.432 -192.414)" fill="#ffcdd3"/>
  <path id="路径_701" data-name="路径 701" d="M813.033,215.026a7.555,7.555,0,0,0-.532,2.221c-.883.743-1.85.693-3.095.693-.955,0-2.014.231-2.777-.229a12.354,12.354,0,0,0-1.09-2.216S814.909,210.338,813.033,215.026Z" transform="translate(-648.389 -192.391)" opacity="0.1"/>
  <ellipse id="椭圆_21" data-name="椭圆 21" cx="5.071" cy="5.071" rx="5.071" ry="5.071" transform="translate(155.78 15.733)" fill="#ffcdd3"/>
  <path id="路径_702" data-name="路径 702" d="M810.738,243.776s-12.265,1.384-9.973.639a3.066,3.066,0,0,0,2.362-2.659,6.841,6.841,0,0,1,2.615-1.393,3.67,3.67,0,0,1,2.223-.037,3.16,3.16,0,0,1,.808.375A6.7,6.7,0,0,0,810.738,243.776Z" transform="translate(-644.432 -213.596)" opacity="0.1"/>
  <path id="路径_703" data-name="路径 703" d="M870.985,223.442l-2.345.543-.05-.349a2.075,2.075,0,0,1,2.256-.771Z" transform="translate(-697.698 -199.996)" opacity="0.1"/>
  <path id="路径_704" data-name="路径 704" d="M696.15,211.825l-2.813,1.386-.057-.6a20.523,20.523,0,0,1,2.833-1.257Z" transform="translate(-560.595 -191.056)" opacity="0.1"/>
  <path id="路径_705" data-name="路径 705" d="M802.388,388.705c-4.753.758-11.509,1.726-12.582,1.4a31.427,31.427,0,0,0-6.207-.157c.022-1.238.044-2.059.044-2.059l18.411-1.918A15.382,15.382,0,0,0,802.388,388.705Z" transform="translate(-631.231 -327.619)" opacity="0.1"/>
  <path id="路径_706" data-name="路径 706" d="M733.842,251.628s-15.641,2.685-17.319,2.179-10.3.041-10.3.041c-3.879,2.6-2.26-1.236-2.26-1.236a9.537,9.537,0,0,1,.128-3.622,22.13,22.13,0,0,0,.643-3.626s-.085-2.559.384-3.156,1.024-4.858,1.024-4.858.425-2.9.384-3.537.126-2.43.126-2.43l.556-2.984c-3.2-.425-12.915-6.392-12.915-6.392-.469-2-4.091-6.691-4.091-6.691a4.939,4.939,0,0,0-.3-1.151c-.255-.682,3.581-2.046,3.581-2.046s2.855,3.487,3.452,4.433a19,19,0,0,0,2.641,2.685,2.055,2.055,0,0,1,.937.122l.05.015h0a7.6,7.6,0,0,1,1.907,1.09,3.705,3.705,0,0,1,2.6.981s1.744-.257,2.046.041,1.789,0,1.789,0,1.491-3.154,2.471-2.238,5.141.872,5.141.872a6.019,6.019,0,0,1,2.746-1.526,3.686,3.686,0,0,1,2.223-.037,2.82,2.82,0,0,1,.872.436l2.53,2.471s.724-.939.638-1.151.852-.384.852-.384,1.236-.384,1.7-.512.9.379.937.425a5.1,5.1,0,0,1-.218-1.874,2.214,2.214,0,0,0-.512-1.526c1.491-3.666,4.858-.6,4.858-.6a7.031,7.031,0,0,1,.044,2.77c-.34.767.34,2.386.255,2.814s.172,1.151.172,1.961a11.983,11.983,0,0,1-.682,3.025c-.246.682-2.3,2.216-2.3,2.216a9.622,9.622,0,0,1-1.024,3.836c-.9,1.406-.333,6.213-.333,6.213s.852,3.751,1.918,4.945S733.842,251.628,733.842,251.628Z" transform="translate(-557.947 -191.658)" fill="#3f3d56"/>
  <path id="路径_707" data-name="路径 707" d="M779.281,255.374s-.469-1.406-.9-1.526a9.843,9.843,0,0,1-1.236-.554l.274-.525s1.6.436,1.857.909A3.616,3.616,0,0,1,779.281,255.374Z" transform="translate(-626.187 -223.449)" opacity="0.1"/>
  <path id="路径_708" data-name="路径 708" d="M733.7,246.454c-.085.436-3.879.809-3.879.809l1.918-1.922h0l.048.017h0a7.6,7.6,0,0,1,1.913,1.1Z" transform="translate(-589.172 -217.638)" opacity="0.1"/>
  <ellipse id="椭圆_22" data-name="椭圆 22" cx="0.34" cy="0.34" rx="0.34" ry="0.34" transform="translate(133.212 22.626)" fill="#575988"/>
  <ellipse id="椭圆_23" data-name="椭圆 23" cx="0.34" cy="0.34" rx="0.34" ry="0.34" transform="translate(133.648 23.308)" fill="#575988"/>
  <ellipse id="椭圆_24" data-name="椭圆 24" cx="0.34" cy="0.34" rx="0.34" ry="0.34" transform="translate(134.075 23.938)" fill="#575988"/>
  <ellipse id="椭圆_25" data-name="椭圆 25" cx="0.34" cy="0.34" rx="0.34" ry="0.34" transform="translate(134.522 24.618)" fill="#575988"/>
  <ellipse id="椭圆_26" data-name="椭圆 26" cx="0.277" cy="0.277" rx="0.277" ry="0.277" transform="translate(174.76 24.644)" fill="#575988"/>
  <ellipse id="椭圆_27" data-name="椭圆 27" cx="0.277" cy="0.277" rx="0.277" ry="0.277" transform="translate(174.804 25.274)" fill="#575988"/>
  <ellipse id="椭圆_28" data-name="椭圆 28" cx="0.277" cy="0.277" rx="0.277" ry="0.277" transform="translate(174.841 25.902)" fill="#575988"/>
  <path id="路径_709" data-name="路径 709" d="M787,317.719c-.042-.05,9.567,12.082,17.025,5.071C804.031,322.793,792.247,324.391,787,317.719Z" transform="translate(-633.89 -274.243)" opacity="0.1"/>
  <path id="路径_710" data-name="路径 710" d="M761.7,346.66s5.749.157,6.351,1.811v1.722a1.1,1.1,0,0,1-1.07,0c-.58-.314-4.056-2.079-5.281-1.229Z" transform="translate(-614.104 -296.876)" opacity="0.1"/>
  <path id="路径_711" data-name="路径 711" d="M762.19,346.66s5.5.15,6.074,1.728v1.639a1.055,1.055,0,0,1-1.024,0c-.554-.3-3.877-1.981-5.05-1.17Z" transform="translate(-614.487 -296.876)" fill="#3f3d56"/>
  <path id="路径_712" data-name="路径 712" d="M776.1,289.38a18.5,18.5,0,0,0,2.23,3.825,15.007,15.007,0,0,0,3.487,3.372S776.2,290.169,776.1,289.38Z" transform="translate(-625.365 -252.08)" opacity="0.1"/>
  <path id="路径_713" data-name="路径 713" d="M767.47,258.73s.959,4.141,3.43,5.547Z" transform="translate(-618.616 -228.11)" opacity="0.1"/>
  <path id="路径_714" data-name="路径 714" d="M760.413,260.645c-.024-.076-.852,3.269,3.186,5.128C763.6,265.773,761.884,265.192,760.413,260.645Z" transform="translate(-613.03 -229.607)" opacity="0.1"/>
  <path id="路径_715" data-name="路径 715" d="M875.9,247.9a28.754,28.754,0,0,1,2.552,1.918S877.119,247.813,875.9,247.9Z" transform="translate(-703.418 -219.638)" opacity="0.1"/>
  <path id="路径_716" data-name="路径 716" d="M801.095,193.7a.8.8,0,0,0,.872.791,10.142,10.142,0,0,0,4.577-.436,1.745,1.745,0,0,0,.7-.462,2.868,2.868,0,0,0,.405-1.122,16.316,16.316,0,0,1,.935-2.153,7.213,7.213,0,0,0,.5-3.868,2.615,2.615,0,0,0-.388-1.131c-.41-.586-1.157-.824-1.7-1.29s-.891-1.179-1.526-1.526a2.929,2.929,0,0,0-1.913-.17,10.044,10.044,0,0,0-3.57,1.34,1.821,1.821,0,0,1-1.194.405,1.6,1.6,0,0,1-.872-.673,4.722,4.722,0,0,0-.364,2.212.948.948,0,0,1-.011.333,1,1,0,0,1-.238.351,1.29,1.29,0,0,0-.242,1.593c.164.194.416.3.575.5.285.355.19.872.183,1.325a.683.683,0,0,0,.113.449.654.654,0,0,0,.625.15,1.7,1.7,0,0,1,.667-.063,1.118,1.118,0,0,1,.58.436A8.19,8.19,0,0,1,801.095,193.7Z" transform="translate(-641.614 -168.303)" fill="#2d293d"/>
  <g id="组_778" data-name="组 778" transform="translate(155.263 15.06)" opacity="0.1">
    <path id="路径_717" data-name="路径 717" d="M807.422,208.417a1.744,1.744,0,0,1-.7.462,10.285,10.285,0,0,1-4.577.436.8.8,0,0,1-.874-.793,7.952,7.952,0,0,0-1.292-3,1.12,1.12,0,0,0-.58-.447,1.788,1.788,0,0,0-.667.063.653.653,0,0,1-.625-.148.682.682,0,0,1-.113-.449c0-.458.1-.97-.183-1.325-.159-.2-.412-.305-.576-.5a.994.994,0,0,1-.1-1.016,1.162,1.162,0,0,0-.072,1.358c.163.194.416.3.575.5.286.357.19.872.183,1.325a.678.678,0,0,0,.111.449.654.654,0,0,0,.628.15,1.7,1.7,0,0,1,.667-.063,1.117,1.117,0,0,1,.58.436,7.964,7.964,0,0,1,1.292,3,1.09,1.09,0,0,0,.377.691,1.057,1.057,0,0,0,.479.1,10.111,10.111,0,0,0,4.577-.436,1.726,1.726,0,0,0,.7-.462,1.328,1.328,0,0,0,.218-.41A.108.108,0,0,1,807.422,208.417Z" transform="translate(-796.877 -198.568)"/>
    <path id="路径_718" data-name="路径 718" d="M799.949,189.788a.745.745,0,0,0,.155-.257.947.947,0,0,0,0-.333,4.728,4.728,0,0,1,.238-1.835l-.028-.033a4.685,4.685,0,0,0-.364,2.21A1.57,1.57,0,0,1,799.949,189.788Z" transform="translate(-799.268 -187.33)"/>
  </g>
  <path id="路径_719" data-name="路径 719" d="M812.08,248.481s6.335.841,6.9-.111" transform="translate(-653.504 -220.008)" opacity="0.1"/>
  <path id="路径_720" data-name="路径 720" d="M868.59,236.85s3.522,0,4.3,1.325" transform="translate(-697.698 -210.998)" opacity="0.1"/>
  <path id="路径_721" data-name="路径 721" d="M942.287,766.058a5.587,5.587,0,0,1-3.8,1.421c-.357,0-.852.067-.854.425a.6.6,0,0,0,.1.292,3.5,3.5,0,0,0,1.961,1.541,6.933,6.933,0,0,0,2.373.15l2.321-.12c.436-.024.872-.046,1.308-.1s.911-.144,1.366-.218a17.868,17.868,0,0,1,3.38-.157,1.023,1.023,0,0,0,.832-.218c.179-.218.087-.634.02-.961-.139-.673,0-1.38-.128-2.055a3.61,3.61,0,0,0-2.369-2.524c-1.046-.4-2.9-.852-3.888-.19C943.867,764.04,943.229,765.2,942.287,766.058Z" transform="translate(-751.692 -622.487)" fill="#3f3d56"/>
  <path id="路径_722" data-name="路径 722" d="M952.856,577.376c.2.974,1.149,1.719,1.175,2.713a4.24,4.24,0,0,1-.954,2.149,14.331,14.331,0,0,0-.974,2.206,33.691,33.691,0,0,1-2.859,5.688,4.552,4.552,0,0,0-1.031,2.816,4.221,4.221,0,0,0,.495,1.347l1.635,3.247a9.4,9.4,0,0,1,.835,2.051c.142.617.155,1.255.237,1.883.257,1.992,1.192,4,.639,5.928-.048.166-.218.366-.351.251a6.213,6.213,0,0,1,.933,3.169,4.415,4.415,0,0,0,.015,1.783,1.951,1.951,0,0,1,.255.7,4.471,4.471,0,0,1-.094.482,1.063,1.063,0,0,0,.815.989c.438.146.915.135,1.358.268a8.332,8.332,0,0,1,2.179,1.5,4.641,4.641,0,0,0,2.511.817.633.633,0,0,0,.37-.074.6.6,0,0,0,.2-.449,2.493,2.493,0,0,0-.9-2.166.981.981,0,0,1-.333-.349.841.841,0,0,1-.031-.39,29.375,29.375,0,0,0-.1-5.361,8.126,8.126,0,0,1-.085-1.706,6.974,6.974,0,0,0,.137-1.419,7.53,7.53,0,0,0-.436-1.36,9.8,9.8,0,0,1-.218-2.53,22.191,22.191,0,0,0-.717-4.359,3.3,3.3,0,0,0-.678-1.574c-.34-.355-.889-.7-.761-1.168a1.387,1.387,0,0,1,.312-.464,1.864,1.864,0,0,0,.388-1.421.639.639,0,0,0,.734-.344,11.491,11.491,0,0,0,5.749-6.538,2.16,2.16,0,0,1,.257-.584,2.631,2.631,0,0,1,1.053-.682,8,8,0,0,0,2.766-2.82,4.984,4.984,0,0,0,1.214-3.52l.068-2.561a1.382,1.382,0,0,0-.048-.5,1.251,1.251,0,0,0-.277-.405,4.923,4.923,0,0,0-2.715-1.465c-.7-.124-1.41-.1-2.116-.159a26.293,26.293,0,0,0-4.088-.436,6.543,6.543,0,0,0-5.08,3.554C953.993,576.779,953.619,577.363,952.856,577.376Z" transform="translate(-759.955 -473.527)" fill="#464353"/>
  <path id="路径_723" data-name="路径 723" d="M906.251,498.047a2.863,2.863,0,0,1-.157,1.166.815.815,0,0,1-.957.49c.111-.251-.183-.536-.458-.506a.856.856,0,0,0-.6.519,1.929,1.929,0,0,0-.174,1.183,4.8,4.8,0,0,1,.3,1.486c-.061.418-.368.835-.2,1.223a1.981,1.981,0,0,0,.394.473,1.334,1.334,0,0,1-.142,1.831l4.123.083a2.912,2.912,0,0,0,.512,2.005,12.64,12.64,0,0,0,9.424,6.152.819.819,0,0,0-.2,1.253,1.164,1.164,0,0,0,1.325.076,9.428,9.428,0,0,0,1.133-.85A3.487,3.487,0,0,1,922.9,514c.516.05,1.018.218,1.537.244,1.526.081,2.833-1.018,4.3-1.467,1.07-.329,2.284-.329,3.182-1a1.268,1.268,0,0,0,.593-1.227,2.05,2.05,0,0,0-.436-.721,12.457,12.457,0,0,1-1.192-2.234,13.36,13.36,0,0,0-2.979-3.993,26.651,26.651,0,0,0-2.955-2.24,5.03,5.03,0,0,0-.8-.482,8.956,8.956,0,0,1-1.09-.436,5.81,5.81,0,0,1-1.135-1.277c-.817-.955-2.073-1.393-3.079-2.142a7.3,7.3,0,0,0-2.079-1.408c-.392-.12-.809-.129-1.2-.246-.891-.27-1.541-1.061-2.415-1.382a9.692,9.692,0,0,0-2.179-.277,5.1,5.1,0,0,1-2.277-.867,2.7,2.7,0,0,0-.726-.423c-1.1-.336-1.194,1.722-1.308,2.434A23.467,23.467,0,0,0,906.251,498.047Z" transform="translate(-725.292 -410.848)" fill="#f1e928"/>
  <path id="路径_724" data-name="路径 724" d="M864.911,537.947c.185,2.009-1.332,3.956-.889,5.924.094.418.275.817.34,1.242a4.764,4.764,0,0,1-1.177,3.247l-5.71,8.38a5.262,5.262,0,0,1-.815,1.007c-1.09.97-2.729.872-4.163,1.159a7.192,7.192,0,0,0-2.79,1.234.181.181,0,0,0-.035.251,2.4,2.4,0,0,0,2.073.974c.15.2,0,.488-.207.63-.305.218-.728.268-.789.789a.87.87,0,0,0,.1.523,1.628,1.628,0,0,0,1,.693c1.977.606,4.112-.458,5.592-1.9s2.541-3.269,3.993-4.738c.8-.815,1.717-1.51,2.545-2.3a29.121,29.121,0,0,0,4.176-5.4,5.979,5.979,0,0,0,.9-1.839c.155-.669.083-1.347.259-1.994a7.327,7.327,0,0,1,1.369-2.236,7.394,7.394,0,0,0,1.556-4.821,4.62,4.62,0,0,0-2.82-4,2.535,2.535,0,0,0-1.58-.1,3.741,3.741,0,0,0-1.608,1.282l-1.09,1.251a2.919,2.919,0,0,0-.612.961,1,1,0,0,0,.218,1.068" transform="translate(-682.876 -443.848)" fill="#fbbebe"/>
  <path id="路径_725" data-name="路径 725" d="M919.751,511.918a3.124,3.124,0,0,0-2.105.654,3,3,0,0,0-.532.833,8.29,8.29,0,0,0-1.053,3.313,15.149,15.149,0,0,0,.381,2.768,10.585,10.585,0,0,1-.238,2.326,16.15,16.15,0,0,0,3-1.155,10.044,10.044,0,0,1,1.759-.913,5.291,5.291,0,0,1,3.249.632c.046-.6-.4-1.639-.355-2.238a2.5,2.5,0,0,1,.133-.741,4.488,4.488,0,0,1,.451-.717,2.934,2.934,0,0,0-.264-3.437,4.786,4.786,0,0,0-3.069-1.308,13.27,13.27,0,0,0-2.142-.074" transform="translate(-734.822 -426.061)" fill="#f5ef74"/>
</svg>
